G04 EAGLE Gerber RS-274X export*
G75*
%MOMM*%
%FSLAX34Y34*%
%LPD*%
%INBottom Copper*%
%IPPOS*%
%AMOC8*
5,1,8,0,0,1.08239X$1,22.5*%
G01*
%ADD10C,1.600000*%
%ADD11C,1.930400*%
%ADD12R,1.930400X1.930400*%
%ADD13C,1.016000*%
%ADD14C,0.203200*%

G36*
X1103387Y3045D02*
X1103387Y3045D01*
X1103475Y3048D01*
X1103478Y3049D01*
X1105000Y3049D01*
X1105017Y3051D01*
X1105032Y3049D01*
X1118905Y3485D01*
X1118958Y3494D01*
X1119000Y3493D01*
X1146527Y6970D01*
X1146597Y6989D01*
X1146652Y6994D01*
X1173525Y13894D01*
X1173593Y13922D01*
X1173647Y13933D01*
X1199444Y24147D01*
X1199507Y24183D01*
X1199559Y24201D01*
X1223873Y37568D01*
X1223931Y37612D01*
X1223980Y37636D01*
X1246427Y53945D01*
X1246479Y53995D01*
X1246525Y54026D01*
X1266750Y73019D01*
X1266796Y73076D01*
X1266838Y73112D01*
X1284523Y94490D01*
X1284561Y94552D01*
X1284598Y94593D01*
X1299465Y118019D01*
X1299495Y118086D01*
X1299526Y118131D01*
X1311340Y143236D01*
X1311361Y143306D01*
X1311387Y143354D01*
X1319960Y169742D01*
X1319973Y169814D01*
X1319992Y169865D01*
X1325191Y197119D01*
X1325195Y197192D01*
X1325207Y197246D01*
X1326949Y224936D01*
X1326944Y225009D01*
X1326949Y225064D01*
X1325207Y252754D01*
X1325192Y252826D01*
X1325191Y252881D01*
X1319992Y280135D01*
X1319969Y280204D01*
X1319960Y280258D01*
X1311387Y306646D01*
X1311355Y306711D01*
X1311340Y306764D01*
X1299526Y331869D01*
X1299486Y331930D01*
X1299465Y331981D01*
X1284598Y355407D01*
X1284551Y355463D01*
X1284523Y355510D01*
X1278711Y362536D01*
X1278612Y362626D01*
X1278515Y362717D01*
X1278507Y362721D01*
X1278501Y362727D01*
X1278381Y362787D01*
X1278263Y362848D01*
X1278254Y362849D01*
X1278246Y362853D01*
X1278114Y362877D01*
X1277984Y362903D01*
X1277975Y362902D01*
X1277966Y362903D01*
X1277833Y362890D01*
X1277701Y362878D01*
X1277692Y362875D01*
X1277683Y362874D01*
X1277560Y362824D01*
X1277435Y362776D01*
X1277428Y362771D01*
X1277420Y362767D01*
X1277315Y362685D01*
X1277209Y362604D01*
X1277203Y362597D01*
X1277196Y362592D01*
X1277118Y362483D01*
X1277038Y362377D01*
X1277035Y362368D01*
X1277030Y362361D01*
X1276985Y362235D01*
X1276938Y362111D01*
X1276937Y362102D01*
X1276934Y362093D01*
X1276926Y361960D01*
X1276915Y361827D01*
X1276917Y361819D01*
X1276917Y361810D01*
X1276978Y361532D01*
X1276987Y361517D01*
X1276991Y361500D01*
X1277033Y361399D01*
X1277033Y358601D01*
X1275962Y356016D01*
X1273984Y354038D01*
X1271399Y352967D01*
X1268601Y352967D01*
X1266016Y354038D01*
X1264038Y356016D01*
X1262967Y358601D01*
X1262967Y361399D01*
X1264038Y363984D01*
X1266016Y365962D01*
X1268601Y367033D01*
X1271399Y367033D01*
X1273087Y366333D01*
X1273124Y366324D01*
X1273159Y366307D01*
X1273262Y366288D01*
X1273363Y366262D01*
X1273401Y366263D01*
X1273439Y366257D01*
X1273543Y366268D01*
X1273647Y366271D01*
X1273683Y366282D01*
X1273721Y366286D01*
X1273818Y366325D01*
X1273918Y366357D01*
X1273949Y366378D01*
X1273985Y366393D01*
X1274067Y366457D01*
X1274154Y366515D01*
X1274178Y366545D01*
X1274208Y366568D01*
X1274270Y366653D01*
X1274337Y366733D01*
X1274352Y366768D01*
X1274375Y366799D01*
X1274410Y366897D01*
X1274452Y366993D01*
X1274457Y367031D01*
X1274470Y367067D01*
X1274477Y367171D01*
X1274491Y367274D01*
X1274486Y367312D01*
X1274488Y367350D01*
X1274465Y367452D01*
X1274450Y367556D01*
X1274435Y367591D01*
X1274426Y367628D01*
X1274387Y367695D01*
X1274333Y367815D01*
X1274286Y367871D01*
X1274258Y367918D01*
X1266838Y376888D01*
X1266784Y376937D01*
X1266750Y376981D01*
X1246525Y395974D01*
X1246465Y396016D01*
X1246427Y396055D01*
X1223980Y412364D01*
X1223916Y412398D01*
X1223873Y412432D01*
X1199559Y425799D01*
X1199491Y425824D01*
X1199444Y425853D01*
X1173647Y436067D01*
X1173576Y436084D01*
X1173525Y436106D01*
X1146652Y443006D01*
X1146609Y443011D01*
X1146567Y443024D01*
X1146544Y443025D01*
X1146527Y443030D01*
X1119000Y446507D01*
X1118946Y446506D01*
X1118905Y446515D01*
X1105032Y446951D01*
X1105014Y446949D01*
X1105000Y446951D01*
X1103414Y446951D01*
X1103378Y446954D01*
X1103301Y446967D01*
X195000Y446967D01*
X194983Y446965D01*
X194969Y446967D01*
X181629Y446564D01*
X181578Y446555D01*
X181537Y446557D01*
X155050Y443341D01*
X154982Y443323D01*
X154929Y443319D01*
X129023Y436933D01*
X128958Y436907D01*
X128906Y436897D01*
X103958Y427435D01*
X103897Y427402D01*
X103847Y427385D01*
X96432Y423494D01*
X96330Y423420D01*
X96226Y423351D01*
X96215Y423338D01*
X96202Y423328D01*
X96124Y423229D01*
X96043Y423133D01*
X96036Y423117D01*
X96026Y423104D01*
X95979Y422988D01*
X95928Y422873D01*
X95925Y422856D01*
X95919Y422841D01*
X95906Y422716D01*
X95889Y422592D01*
X95891Y422575D01*
X95889Y422558D01*
X95912Y422434D01*
X95930Y422310D01*
X95936Y422295D01*
X95939Y422278D01*
X95995Y422165D01*
X96047Y422051D01*
X96058Y422038D01*
X96065Y422023D01*
X96150Y421930D01*
X96231Y421835D01*
X96244Y421827D01*
X96257Y421813D01*
X96499Y421664D01*
X96508Y421661D01*
X96516Y421657D01*
X98029Y421030D01*
X100030Y419029D01*
X101113Y416415D01*
X101113Y413585D01*
X100030Y410971D01*
X98029Y408970D01*
X97675Y408824D01*
X97674Y408823D01*
X97673Y408822D01*
X97554Y408752D01*
X97431Y408679D01*
X97430Y408678D01*
X97428Y408677D01*
X97330Y408573D01*
X97235Y408472D01*
X97235Y408471D01*
X97234Y408470D01*
X97169Y408344D01*
X97105Y408220D01*
X97105Y408218D01*
X97104Y408217D01*
X97102Y408202D01*
X97050Y407941D01*
X97053Y407910D01*
X97049Y407886D01*
X97049Y387683D01*
X97061Y387597D01*
X97064Y387509D01*
X97081Y387457D01*
X97089Y387402D01*
X97124Y387322D01*
X97151Y387239D01*
X97179Y387200D01*
X97205Y387142D01*
X97301Y387029D01*
X97346Y386965D01*
X100965Y383346D01*
X101035Y383294D01*
X101099Y383234D01*
X101149Y383208D01*
X101193Y383175D01*
X101274Y383144D01*
X101352Y383104D01*
X101400Y383096D01*
X101458Y383074D01*
X101606Y383062D01*
X101683Y383049D01*
X341263Y383049D01*
X357125Y367186D01*
X357126Y367185D01*
X357127Y367184D01*
X357241Y367099D01*
X357352Y367015D01*
X357354Y367015D01*
X357355Y367014D01*
X357487Y366964D01*
X357618Y366914D01*
X357620Y366914D01*
X357621Y366914D01*
X357760Y366902D01*
X357901Y366891D01*
X357903Y366891D01*
X357904Y366891D01*
X357919Y366894D01*
X358180Y366947D01*
X358207Y366961D01*
X358232Y366966D01*
X358585Y367113D01*
X361415Y367113D01*
X364029Y366030D01*
X366030Y364029D01*
X367113Y361415D01*
X367113Y358585D01*
X366030Y355971D01*
X364029Y353970D01*
X361415Y352887D01*
X358585Y352887D01*
X355971Y353970D01*
X353970Y355971D01*
X352887Y358585D01*
X352887Y361415D01*
X353034Y361768D01*
X353034Y361770D01*
X353035Y361771D01*
X353069Y361904D01*
X353105Y362044D01*
X353105Y362045D01*
X353105Y362047D01*
X353101Y362185D01*
X353097Y362328D01*
X353096Y362329D01*
X353096Y362331D01*
X353053Y362465D01*
X353010Y362599D01*
X353009Y362600D01*
X353009Y362601D01*
X353000Y362614D01*
X352852Y362835D01*
X352828Y362854D01*
X352814Y362875D01*
X339035Y376654D01*
X338965Y376706D01*
X338901Y376766D01*
X338851Y376792D01*
X338807Y376825D01*
X338726Y376856D01*
X338648Y376896D01*
X338600Y376904D01*
X338542Y376926D01*
X338394Y376938D01*
X338317Y376951D01*
X98737Y376951D01*
X96654Y379034D01*
X96654Y379035D01*
X93035Y382654D01*
X93034Y382654D01*
X90951Y384737D01*
X90951Y407886D01*
X90951Y407887D01*
X90951Y407889D01*
X90931Y408030D01*
X90911Y408167D01*
X90911Y408169D01*
X90911Y408170D01*
X90854Y408296D01*
X90795Y408427D01*
X90794Y408428D01*
X90793Y408429D01*
X90700Y408538D01*
X90612Y408644D01*
X90610Y408644D01*
X90609Y408646D01*
X90596Y408654D01*
X90375Y408801D01*
X90346Y408810D01*
X90325Y408824D01*
X89971Y408970D01*
X87970Y410971D01*
X86887Y413585D01*
X86887Y416415D01*
X86909Y416468D01*
X86928Y416541D01*
X86957Y416611D01*
X86964Y416678D01*
X86980Y416744D01*
X86978Y416819D01*
X86986Y416894D01*
X86974Y416960D01*
X86972Y417028D01*
X86949Y417099D01*
X86936Y417174D01*
X86906Y417234D01*
X86886Y417299D01*
X86844Y417361D01*
X86810Y417429D01*
X86765Y417479D01*
X86727Y417535D01*
X86670Y417583D01*
X86619Y417639D01*
X86561Y417674D01*
X86510Y417718D01*
X86441Y417748D01*
X86377Y417788D01*
X86312Y417806D01*
X86250Y417833D01*
X86175Y417844D01*
X86103Y417864D01*
X86035Y417863D01*
X85968Y417872D01*
X85894Y417861D01*
X85819Y417861D01*
X85764Y417843D01*
X85687Y417831D01*
X85573Y417780D01*
X85500Y417756D01*
X80221Y414986D01*
X80164Y414945D01*
X80116Y414922D01*
X58158Y399765D01*
X58107Y399718D01*
X58061Y399690D01*
X38090Y381997D01*
X38045Y381943D01*
X38003Y381910D01*
X20310Y361939D01*
X20272Y361880D01*
X20235Y361842D01*
X5078Y339884D01*
X5047Y339821D01*
X5014Y339779D01*
X-7385Y316153D01*
X-7409Y316087D01*
X-7435Y316042D01*
X-16897Y291094D01*
X-16912Y291026D01*
X-16933Y290977D01*
X-23319Y265071D01*
X-23326Y265001D01*
X-23341Y264950D01*
X-26557Y238463D01*
X-26556Y238411D01*
X-26564Y238371D01*
X-26967Y225031D01*
X-26965Y225014D01*
X-26967Y225000D01*
X-26965Y224983D01*
X-26967Y224969D01*
X-26564Y211629D01*
X-26555Y211578D01*
X-26557Y211537D01*
X-23341Y185050D01*
X-23323Y184982D01*
X-23319Y184929D01*
X-18110Y163797D01*
X-18070Y163699D01*
X-18038Y163598D01*
X-18018Y163568D01*
X-18004Y163533D01*
X-17939Y163450D01*
X-17880Y163362D01*
X-17852Y163339D01*
X-17829Y163309D01*
X-17743Y163247D01*
X-17662Y163179D01*
X-17629Y163164D01*
X-17599Y163143D01*
X-17499Y163107D01*
X-17403Y163064D01*
X-17366Y163059D01*
X-17331Y163046D01*
X-17226Y163039D01*
X-17121Y163025D01*
X-17084Y163030D01*
X-17048Y163028D01*
X-16944Y163050D01*
X-16840Y163066D01*
X-16806Y163081D01*
X-16770Y163089D01*
X-16677Y163139D01*
X-16581Y163183D01*
X-16552Y163207D01*
X-16520Y163224D01*
X-16445Y163298D01*
X-16364Y163367D01*
X-16347Y163395D01*
X-16317Y163424D01*
X-16218Y163601D01*
X-16186Y163652D01*
X-16030Y164029D01*
X-14029Y166030D01*
X-11415Y167113D01*
X-8585Y167113D01*
X-8232Y166966D01*
X-8230Y166966D01*
X-8229Y166965D01*
X-8089Y166929D01*
X-7956Y166895D01*
X-7955Y166895D01*
X-7953Y166895D01*
X-7807Y166900D01*
X-7672Y166903D01*
X-7671Y166904D01*
X-7669Y166904D01*
X-7531Y166949D01*
X-7401Y166990D01*
X-7400Y166991D01*
X-7398Y166992D01*
X-7385Y167001D01*
X-7314Y167049D01*
X-3811Y167049D01*
X-3782Y167053D01*
X-3753Y167050D01*
X-3642Y167073D01*
X-3530Y167089D01*
X-3503Y167101D01*
X-3474Y167106D01*
X-3374Y167158D01*
X-3270Y167205D01*
X-3248Y167224D01*
X-3222Y167237D01*
X-3140Y167315D01*
X-3053Y167388D01*
X-3037Y167413D01*
X-3016Y167433D01*
X-2959Y167531D01*
X-2896Y167625D01*
X-2887Y167653D01*
X-2872Y167678D01*
X-2844Y167788D01*
X-2810Y167896D01*
X-2809Y167925D01*
X-2802Y167954D01*
X-2806Y168067D01*
X-2803Y168180D01*
X-2810Y168209D01*
X-2811Y168238D01*
X-2846Y168346D01*
X-2875Y168455D01*
X-2890Y168481D01*
X-2899Y168509D01*
X-2944Y168572D01*
X-3020Y168700D01*
X-3065Y168743D01*
X-3093Y168782D01*
X-3346Y169035D01*
X-7125Y172814D01*
X-7126Y172815D01*
X-7127Y172816D01*
X-7241Y172901D01*
X-7352Y172985D01*
X-7354Y172985D01*
X-7355Y172986D01*
X-7487Y173036D01*
X-7618Y173086D01*
X-7620Y173086D01*
X-7621Y173086D01*
X-7760Y173098D01*
X-7901Y173109D01*
X-7903Y173109D01*
X-7904Y173109D01*
X-7919Y173106D01*
X-8180Y173053D01*
X-8207Y173039D01*
X-8232Y173034D01*
X-8585Y172887D01*
X-11415Y172887D01*
X-14029Y173970D01*
X-16030Y175971D01*
X-17113Y178585D01*
X-17113Y181415D01*
X-16030Y184029D01*
X-14029Y186030D01*
X-11415Y187113D01*
X-8585Y187113D01*
X-5971Y186030D01*
X-3970Y184029D01*
X-2887Y181415D01*
X-2887Y178585D01*
X-3034Y178232D01*
X-3034Y178230D01*
X-3035Y178229D01*
X-3069Y178094D01*
X-3105Y177956D01*
X-3105Y177955D01*
X-3105Y177953D01*
X-3100Y177803D01*
X-3097Y177672D01*
X-3096Y177671D01*
X-3096Y177669D01*
X-3052Y177533D01*
X-3010Y177401D01*
X-3009Y177400D01*
X-3009Y177399D01*
X-3000Y177386D01*
X-2852Y177165D01*
X-2828Y177145D01*
X-2814Y177125D01*
X965Y173346D01*
X1035Y173294D01*
X1099Y173234D01*
X1149Y173208D01*
X1193Y173175D01*
X1274Y173144D01*
X1352Y173104D01*
X1400Y173096D01*
X1458Y173074D01*
X1606Y173062D01*
X1683Y173049D01*
X412886Y173049D01*
X412887Y173049D01*
X412889Y173049D01*
X413030Y173069D01*
X413167Y173089D01*
X413169Y173089D01*
X413170Y173089D01*
X413300Y173148D01*
X413427Y173205D01*
X413428Y173206D01*
X413429Y173207D01*
X413538Y173300D01*
X413644Y173388D01*
X413644Y173390D01*
X413646Y173391D01*
X413654Y173404D01*
X413801Y173625D01*
X413810Y173654D01*
X413824Y173675D01*
X413970Y174029D01*
X415971Y176030D01*
X418585Y177113D01*
X421415Y177113D01*
X424029Y176030D01*
X426030Y174029D01*
X427113Y171415D01*
X427113Y168585D01*
X426030Y165971D01*
X424029Y163970D01*
X421415Y162887D01*
X418585Y162887D01*
X415971Y163970D01*
X413970Y165971D01*
X413824Y166325D01*
X413823Y166326D01*
X413822Y166327D01*
X413752Y166446D01*
X413679Y166569D01*
X413678Y166570D01*
X413677Y166572D01*
X413573Y166670D01*
X413472Y166765D01*
X413471Y166765D01*
X413470Y166766D01*
X413344Y166831D01*
X413220Y166895D01*
X413218Y166895D01*
X413217Y166896D01*
X413202Y166898D01*
X412941Y166950D01*
X412910Y166947D01*
X412886Y166951D01*
X29811Y166951D01*
X29782Y166947D01*
X29753Y166950D01*
X29642Y166927D01*
X29530Y166911D01*
X29503Y166899D01*
X29474Y166894D01*
X29374Y166842D01*
X29270Y166795D01*
X29248Y166776D01*
X29222Y166763D01*
X29140Y166685D01*
X29053Y166612D01*
X29037Y166587D01*
X29016Y166567D01*
X28959Y166469D01*
X28896Y166375D01*
X28887Y166347D01*
X28872Y166322D01*
X28844Y166212D01*
X28810Y166104D01*
X28809Y166075D01*
X28802Y166046D01*
X28806Y165933D01*
X28803Y165820D01*
X28810Y165791D01*
X28811Y165762D01*
X28846Y165654D01*
X28875Y165545D01*
X28890Y165519D01*
X28899Y165491D01*
X28944Y165428D01*
X29020Y165300D01*
X29065Y165257D01*
X29093Y165218D01*
X29346Y164965D01*
X43049Y151263D01*
X43049Y121683D01*
X43061Y121597D01*
X43064Y121509D01*
X43081Y121457D01*
X43089Y121402D01*
X43124Y121322D01*
X43151Y121239D01*
X43179Y121200D01*
X43205Y121142D01*
X43301Y121029D01*
X43346Y120965D01*
X45965Y118346D01*
X46035Y118294D01*
X46099Y118234D01*
X46149Y118208D01*
X46193Y118175D01*
X46274Y118144D01*
X46352Y118104D01*
X46400Y118096D01*
X46458Y118074D01*
X46606Y118062D01*
X46683Y118049D01*
X343263Y118049D01*
X345346Y115966D01*
X345346Y115965D01*
X366125Y95186D01*
X366126Y95185D01*
X366127Y95184D01*
X366241Y95099D01*
X366352Y95015D01*
X366354Y95015D01*
X366355Y95014D01*
X366487Y94964D01*
X366618Y94914D01*
X366620Y94914D01*
X366621Y94914D01*
X366760Y94902D01*
X366901Y94891D01*
X366903Y94891D01*
X366904Y94891D01*
X366919Y94894D01*
X367180Y94947D01*
X367207Y94961D01*
X367232Y94966D01*
X367585Y95113D01*
X370415Y95113D01*
X373029Y94030D01*
X375030Y92029D01*
X376113Y89415D01*
X376113Y86585D01*
X375030Y83971D01*
X373029Y81970D01*
X370415Y80887D01*
X367585Y80887D01*
X364971Y81970D01*
X362970Y83971D01*
X361887Y86585D01*
X361887Y89415D01*
X362034Y89768D01*
X362034Y89770D01*
X362035Y89771D01*
X362069Y89904D01*
X362105Y90044D01*
X362105Y90045D01*
X362105Y90047D01*
X362101Y90188D01*
X362097Y90328D01*
X362096Y90329D01*
X362096Y90331D01*
X362053Y90465D01*
X362010Y90599D01*
X362009Y90600D01*
X362009Y90601D01*
X362000Y90614D01*
X361852Y90835D01*
X361828Y90854D01*
X361814Y90875D01*
X341035Y111654D01*
X340965Y111706D01*
X340901Y111766D01*
X340851Y111792D01*
X340807Y111825D01*
X340726Y111856D01*
X340648Y111896D01*
X340600Y111904D01*
X340542Y111926D01*
X340394Y111938D01*
X340317Y111951D01*
X43737Y111951D01*
X36951Y118737D01*
X36951Y148317D01*
X36939Y148403D01*
X36936Y148491D01*
X36919Y148543D01*
X36911Y148598D01*
X36876Y148678D01*
X36849Y148761D01*
X36821Y148800D01*
X36795Y148858D01*
X36699Y148971D01*
X36654Y149035D01*
X25035Y160654D01*
X24965Y160706D01*
X24901Y160766D01*
X24851Y160792D01*
X24807Y160825D01*
X24726Y160856D01*
X24648Y160896D01*
X24600Y160904D01*
X24542Y160926D01*
X24394Y160938D01*
X24317Y160951D01*
X-1872Y160951D01*
X-1930Y160943D01*
X-1988Y160945D01*
X-2070Y160923D01*
X-2154Y160911D01*
X-2207Y160888D01*
X-2263Y160873D01*
X-2336Y160830D01*
X-2413Y160795D01*
X-2458Y160757D01*
X-2508Y160728D01*
X-2566Y160666D01*
X-2630Y160612D01*
X-2662Y160563D01*
X-2702Y160520D01*
X-2741Y160445D01*
X-2788Y160375D01*
X-2805Y160319D01*
X-2832Y160267D01*
X-2843Y160199D01*
X-2873Y160104D01*
X-2876Y160004D01*
X-2887Y159936D01*
X-2887Y158585D01*
X-3970Y155971D01*
X-5971Y153970D01*
X-8585Y152887D01*
X-11415Y152887D01*
X-13039Y153560D01*
X-13053Y153564D01*
X-13065Y153570D01*
X-13190Y153599D01*
X-13315Y153631D01*
X-13328Y153631D01*
X-13342Y153634D01*
X-13470Y153627D01*
X-13599Y153623D01*
X-13612Y153619D01*
X-13626Y153618D01*
X-13747Y153576D01*
X-13870Y153536D01*
X-13881Y153529D01*
X-13894Y153524D01*
X-13999Y153450D01*
X-14106Y153378D01*
X-14115Y153367D01*
X-14126Y153359D01*
X-14206Y153259D01*
X-14289Y153160D01*
X-14294Y153148D01*
X-14303Y153137D01*
X-14352Y153018D01*
X-14404Y152901D01*
X-14406Y152887D01*
X-14411Y152874D01*
X-14425Y152746D01*
X-14443Y152619D01*
X-14441Y152605D01*
X-14443Y152591D01*
X-14430Y152526D01*
X-14402Y152338D01*
X-14384Y152297D01*
X-14377Y152262D01*
X-7435Y133958D01*
X-7402Y133897D01*
X-7385Y133847D01*
X5014Y110221D01*
X5055Y110164D01*
X5078Y110116D01*
X20235Y88158D01*
X20260Y88131D01*
X20279Y88099D01*
X20299Y88080D01*
X20310Y88062D01*
X38003Y68090D01*
X38057Y68045D01*
X38090Y68003D01*
X58061Y50310D01*
X58120Y50272D01*
X58158Y50235D01*
X80116Y35078D01*
X80179Y35047D01*
X80221Y35014D01*
X103847Y22615D01*
X103913Y22591D01*
X103958Y22565D01*
X128906Y13103D01*
X128974Y13088D01*
X129023Y13067D01*
X154929Y6681D01*
X154999Y6674D01*
X155050Y6659D01*
X181537Y3443D01*
X181589Y3444D01*
X181629Y3436D01*
X194969Y3033D01*
X194986Y3035D01*
X195000Y3033D01*
X1103301Y3033D01*
X1103387Y3045D01*
G37*
%LPC*%
G36*
X328737Y16951D02*
X328737Y16951D01*
X326654Y19035D01*
X292035Y53654D01*
X291965Y53706D01*
X291901Y53766D01*
X291852Y53792D01*
X291807Y53825D01*
X291726Y53856D01*
X291648Y53896D01*
X291600Y53904D01*
X291542Y53926D01*
X291394Y53938D01*
X291317Y53951D01*
X98683Y53951D01*
X98597Y53939D01*
X98509Y53936D01*
X98457Y53919D01*
X98402Y53911D01*
X98322Y53876D01*
X98239Y53849D01*
X98200Y53821D01*
X98142Y53795D01*
X98029Y53699D01*
X97965Y53654D01*
X97186Y52875D01*
X97185Y52874D01*
X97184Y52873D01*
X97096Y52754D01*
X97015Y52648D01*
X97015Y52646D01*
X97014Y52645D01*
X96962Y52508D01*
X96914Y52382D01*
X96914Y52380D01*
X96914Y52379D01*
X96902Y52240D01*
X96891Y52099D01*
X96891Y52097D01*
X96891Y52096D01*
X96894Y52081D01*
X96947Y51820D01*
X96961Y51793D01*
X96966Y51768D01*
X97113Y51415D01*
X97113Y48585D01*
X96030Y45971D01*
X94029Y43970D01*
X91415Y42887D01*
X88585Y42887D01*
X85971Y43970D01*
X83970Y45971D01*
X82887Y48585D01*
X82887Y51415D01*
X83970Y54029D01*
X85971Y56030D01*
X88585Y57113D01*
X91415Y57113D01*
X91768Y56966D01*
X91770Y56966D01*
X91771Y56965D01*
X91904Y56931D01*
X92044Y56895D01*
X92045Y56895D01*
X92047Y56895D01*
X92188Y56899D01*
X92328Y56903D01*
X92329Y56904D01*
X92331Y56904D01*
X92465Y56947D01*
X92599Y56990D01*
X92600Y56991D01*
X92601Y56991D01*
X92614Y57000D01*
X92835Y57148D01*
X92855Y57172D01*
X92875Y57186D01*
X93654Y57965D01*
X94907Y59218D01*
X94924Y59242D01*
X94947Y59261D01*
X95009Y59355D01*
X95077Y59445D01*
X95088Y59473D01*
X95104Y59497D01*
X95138Y59605D01*
X95179Y59711D01*
X95181Y59740D01*
X95190Y59768D01*
X95193Y59882D01*
X95202Y59994D01*
X95197Y60023D01*
X95197Y60052D01*
X95169Y60162D01*
X95146Y60273D01*
X95133Y60299D01*
X95125Y60327D01*
X95068Y60425D01*
X95015Y60525D01*
X94995Y60547D01*
X94980Y60572D01*
X94898Y60649D01*
X94820Y60731D01*
X94794Y60746D01*
X94773Y60766D01*
X94672Y60818D01*
X94574Y60875D01*
X94546Y60882D01*
X94520Y60896D01*
X94442Y60909D01*
X94299Y60945D01*
X94236Y60943D01*
X94189Y60951D01*
X54737Y60951D01*
X36951Y78737D01*
X36951Y92886D01*
X36951Y92887D01*
X36951Y92889D01*
X36931Y93030D01*
X36911Y93167D01*
X36911Y93169D01*
X36911Y93170D01*
X36852Y93300D01*
X36795Y93427D01*
X36794Y93428D01*
X36793Y93429D01*
X36700Y93538D01*
X36612Y93644D01*
X36610Y93644D01*
X36609Y93646D01*
X36596Y93654D01*
X36375Y93801D01*
X36346Y93810D01*
X36325Y93824D01*
X35971Y93970D01*
X33970Y95971D01*
X32887Y98585D01*
X32887Y100560D01*
X32880Y100608D01*
X32881Y100613D01*
X32879Y100620D01*
X32875Y100645D01*
X32873Y100731D01*
X32855Y100785D01*
X32847Y100842D01*
X32812Y100920D01*
X32786Y101002D01*
X32754Y101049D01*
X32731Y101101D01*
X32676Y101167D01*
X32628Y101238D01*
X32584Y101275D01*
X32548Y101318D01*
X32476Y101366D01*
X32410Y101421D01*
X32358Y101444D01*
X32311Y101476D01*
X32229Y101502D01*
X32150Y101537D01*
X32094Y101544D01*
X32040Y101561D01*
X31954Y101564D01*
X31869Y101575D01*
X31812Y101567D01*
X31756Y101569D01*
X31672Y101547D01*
X31587Y101535D01*
X31536Y101511D01*
X31481Y101497D01*
X31407Y101453D01*
X31328Y101418D01*
X31285Y101381D01*
X31236Y101352D01*
X31177Y101289D01*
X31112Y101233D01*
X31086Y101191D01*
X31042Y101144D01*
X30991Y101045D01*
X28984Y99038D01*
X26399Y97967D01*
X23601Y97967D01*
X21016Y99038D01*
X19038Y101016D01*
X17967Y103601D01*
X17967Y106399D01*
X19038Y108984D01*
X21016Y110962D01*
X23601Y112033D01*
X26399Y112033D01*
X28984Y110962D01*
X30962Y108984D01*
X32033Y106399D01*
X32033Y104456D01*
X32045Y104371D01*
X32047Y104285D01*
X32065Y104231D01*
X32073Y104174D01*
X32108Y104096D01*
X32134Y104014D01*
X32166Y103967D01*
X32189Y103915D01*
X32244Y103849D01*
X32292Y103778D01*
X32336Y103741D01*
X32372Y103698D01*
X32444Y103650D01*
X32510Y103595D01*
X32562Y103572D01*
X32609Y103540D01*
X32691Y103514D01*
X32770Y103479D01*
X32826Y103472D01*
X32880Y103454D01*
X32966Y103452D01*
X33051Y103441D01*
X33108Y103449D01*
X33164Y103447D01*
X33247Y103469D01*
X33333Y103481D01*
X33384Y103505D01*
X33439Y103519D01*
X33513Y103563D01*
X33592Y103598D01*
X33635Y103635D01*
X33684Y103664D01*
X33743Y103727D01*
X33808Y103783D01*
X33834Y103825D01*
X33878Y103872D01*
X33944Y104001D01*
X33949Y104008D01*
X35971Y106030D01*
X38585Y107113D01*
X41415Y107113D01*
X44029Y106030D01*
X46030Y104029D01*
X47113Y101415D01*
X47113Y98585D01*
X46030Y95971D01*
X44029Y93970D01*
X43675Y93824D01*
X43674Y93823D01*
X43673Y93822D01*
X43554Y93752D01*
X43431Y93679D01*
X43430Y93678D01*
X43428Y93677D01*
X43330Y93573D01*
X43235Y93472D01*
X43235Y93471D01*
X43234Y93470D01*
X43169Y93344D01*
X43105Y93220D01*
X43105Y93218D01*
X43104Y93217D01*
X43102Y93202D01*
X43050Y92941D01*
X43053Y92910D01*
X43049Y92886D01*
X43049Y81683D01*
X43061Y81597D01*
X43064Y81509D01*
X43081Y81457D01*
X43089Y81402D01*
X43124Y81322D01*
X43151Y81239D01*
X43179Y81200D01*
X43205Y81142D01*
X43301Y81029D01*
X43346Y80965D01*
X56965Y67346D01*
X57035Y67294D01*
X57099Y67234D01*
X57149Y67208D01*
X57193Y67175D01*
X57274Y67144D01*
X57352Y67104D01*
X57400Y67096D01*
X57458Y67074D01*
X57606Y67062D01*
X57683Y67049D01*
X307263Y67049D01*
X327125Y47186D01*
X327127Y47185D01*
X327127Y47184D01*
X327241Y47099D01*
X327352Y47015D01*
X327354Y47015D01*
X327355Y47014D01*
X327485Y46965D01*
X327618Y46914D01*
X327620Y46914D01*
X327621Y46914D01*
X327760Y46902D01*
X327901Y46891D01*
X327903Y46891D01*
X327905Y46891D01*
X327919Y46894D01*
X328180Y46947D01*
X328207Y46961D01*
X328232Y46966D01*
X328585Y47113D01*
X331415Y47113D01*
X334029Y46030D01*
X336030Y44029D01*
X337113Y41415D01*
X337113Y38585D01*
X336030Y35971D01*
X334029Y33970D01*
X331415Y32887D01*
X328585Y32887D01*
X325971Y33970D01*
X323970Y35971D01*
X322887Y38585D01*
X322887Y41415D01*
X323034Y41768D01*
X323034Y41770D01*
X323035Y41771D01*
X323068Y41903D01*
X323105Y42044D01*
X323105Y42045D01*
X323105Y42047D01*
X323101Y42188D01*
X323097Y42328D01*
X323096Y42329D01*
X323096Y42331D01*
X323052Y42467D01*
X323010Y42599D01*
X323009Y42600D01*
X323009Y42601D01*
X323000Y42614D01*
X322852Y42835D01*
X322828Y42854D01*
X322814Y42875D01*
X305035Y60654D01*
X304965Y60706D01*
X304901Y60766D01*
X304851Y60792D01*
X304807Y60825D01*
X304726Y60856D01*
X304648Y60896D01*
X304600Y60904D01*
X304542Y60926D01*
X304394Y60938D01*
X304317Y60951D01*
X295811Y60951D01*
X295782Y60947D01*
X295753Y60950D01*
X295642Y60927D01*
X295530Y60911D01*
X295503Y60899D01*
X295474Y60894D01*
X295374Y60841D01*
X295270Y60795D01*
X295248Y60776D01*
X295222Y60763D01*
X295140Y60685D01*
X295053Y60612D01*
X295037Y60587D01*
X295016Y60567D01*
X294959Y60469D01*
X294896Y60375D01*
X294887Y60347D01*
X294872Y60322D01*
X294844Y60212D01*
X294810Y60104D01*
X294809Y60074D01*
X294802Y60046D01*
X294806Y59933D01*
X294803Y59820D01*
X294810Y59791D01*
X294811Y59762D01*
X294846Y59654D01*
X294875Y59545D01*
X294889Y59519D01*
X294899Y59491D01*
X294944Y59427D01*
X295020Y59300D01*
X295065Y59258D01*
X295069Y59251D01*
X295072Y59248D01*
X295093Y59218D01*
X296346Y57965D01*
X330965Y23346D01*
X331035Y23294D01*
X331099Y23234D01*
X331149Y23208D01*
X331193Y23175D01*
X331274Y23144D01*
X331352Y23104D01*
X331400Y23096D01*
X331458Y23074D01*
X331606Y23062D01*
X331683Y23049D01*
X348317Y23049D01*
X348403Y23061D01*
X348491Y23064D01*
X348543Y23081D01*
X348598Y23089D01*
X348678Y23124D01*
X348761Y23151D01*
X348800Y23179D01*
X348858Y23205D01*
X348971Y23301D01*
X349035Y23346D01*
X380907Y55218D01*
X380924Y55242D01*
X380947Y55261D01*
X381009Y55355D01*
X381077Y55445D01*
X381088Y55473D01*
X381104Y55497D01*
X381138Y55605D01*
X381179Y55711D01*
X381181Y55740D01*
X381190Y55768D01*
X381193Y55882D01*
X381202Y55994D01*
X381197Y56023D01*
X381197Y56052D01*
X381169Y56162D01*
X381146Y56273D01*
X381133Y56299D01*
X381125Y56327D01*
X381068Y56425D01*
X381015Y56525D01*
X380995Y56547D01*
X380980Y56572D01*
X380898Y56649D01*
X380820Y56731D01*
X380794Y56746D01*
X380773Y56766D01*
X380672Y56818D01*
X380574Y56875D01*
X380546Y56882D01*
X380520Y56896D01*
X380442Y56909D01*
X380299Y56945D01*
X380236Y56943D01*
X380189Y56951D01*
X347114Y56951D01*
X347113Y56951D01*
X347111Y56951D01*
X346970Y56931D01*
X346833Y56911D01*
X346831Y56911D01*
X346830Y56911D01*
X346700Y56852D01*
X346573Y56795D01*
X346572Y56794D01*
X346571Y56793D01*
X346462Y56700D01*
X346356Y56612D01*
X346356Y56610D01*
X346354Y56609D01*
X346346Y56596D01*
X346199Y56375D01*
X346190Y56346D01*
X346176Y56325D01*
X346030Y55971D01*
X344029Y53970D01*
X341415Y52887D01*
X338585Y52887D01*
X335971Y53970D01*
X333970Y55971D01*
X332887Y58585D01*
X332887Y61415D01*
X333970Y64029D01*
X335971Y66030D01*
X338585Y67113D01*
X341415Y67113D01*
X344029Y66030D01*
X346030Y64029D01*
X346176Y63675D01*
X346177Y63674D01*
X346178Y63673D01*
X346248Y63554D01*
X346321Y63431D01*
X346322Y63430D01*
X346323Y63428D01*
X346427Y63330D01*
X346528Y63235D01*
X346529Y63235D01*
X346530Y63234D01*
X346656Y63169D01*
X346780Y63105D01*
X346782Y63105D01*
X346783Y63104D01*
X346798Y63102D01*
X347059Y63050D01*
X347090Y63053D01*
X347114Y63049D01*
X378317Y63049D01*
X378403Y63061D01*
X378491Y63064D01*
X378543Y63081D01*
X378598Y63089D01*
X378678Y63124D01*
X378761Y63151D01*
X378800Y63179D01*
X378858Y63205D01*
X378971Y63301D01*
X379035Y63346D01*
X406654Y90965D01*
X406706Y91035D01*
X406766Y91099D01*
X406792Y91149D01*
X406825Y91193D01*
X406856Y91274D01*
X406896Y91352D01*
X406904Y91400D01*
X406926Y91458D01*
X406938Y91606D01*
X406951Y91683D01*
X406951Y92886D01*
X406951Y92887D01*
X406951Y92889D01*
X406931Y93030D01*
X406911Y93167D01*
X406911Y93169D01*
X406911Y93170D01*
X406852Y93300D01*
X406795Y93427D01*
X406794Y93428D01*
X406793Y93429D01*
X406700Y93538D01*
X406612Y93644D01*
X406610Y93644D01*
X406609Y93646D01*
X406596Y93654D01*
X406375Y93801D01*
X406346Y93810D01*
X406325Y93824D01*
X405971Y93970D01*
X403970Y95971D01*
X402887Y98585D01*
X402887Y101415D01*
X403970Y104029D01*
X405971Y106030D01*
X408585Y107113D01*
X411415Y107113D01*
X414029Y106030D01*
X416030Y104029D01*
X417113Y101415D01*
X417113Y98585D01*
X416030Y95971D01*
X414029Y93970D01*
X413675Y93824D01*
X413674Y93823D01*
X413673Y93822D01*
X413554Y93752D01*
X413431Y93679D01*
X413430Y93678D01*
X413428Y93677D01*
X413330Y93573D01*
X413235Y93472D01*
X413235Y93471D01*
X413234Y93470D01*
X413169Y93344D01*
X413105Y93220D01*
X413105Y93218D01*
X413104Y93217D01*
X413102Y93202D01*
X413050Y92941D01*
X413053Y92910D01*
X413049Y92886D01*
X413049Y89811D01*
X413053Y89782D01*
X413050Y89753D01*
X413073Y89642D01*
X413089Y89530D01*
X413101Y89503D01*
X413106Y89474D01*
X413158Y89374D01*
X413205Y89270D01*
X413224Y89248D01*
X413237Y89222D01*
X413315Y89140D01*
X413388Y89053D01*
X413413Y89037D01*
X413433Y89016D01*
X413531Y88959D01*
X413625Y88896D01*
X413653Y88887D01*
X413678Y88872D01*
X413788Y88844D01*
X413896Y88810D01*
X413926Y88809D01*
X413954Y88802D01*
X414067Y88806D01*
X414180Y88803D01*
X414209Y88810D01*
X414238Y88811D01*
X414346Y88846D01*
X414455Y88875D01*
X414481Y88890D01*
X414509Y88899D01*
X414572Y88944D01*
X414700Y89020D01*
X414743Y89065D01*
X414782Y89093D01*
X436654Y110965D01*
X436665Y110981D01*
X436675Y110989D01*
X436702Y111029D01*
X436706Y111035D01*
X436766Y111099D01*
X436792Y111149D01*
X436825Y111193D01*
X436856Y111274D01*
X436896Y111352D01*
X436904Y111400D01*
X436926Y111458D01*
X436938Y111606D01*
X436951Y111683D01*
X436951Y161263D01*
X439034Y163346D01*
X439035Y163346D01*
X446654Y170965D01*
X446654Y170966D01*
X448737Y173049D01*
X510936Y173049D01*
X510994Y173057D01*
X511052Y173055D01*
X511134Y173077D01*
X511218Y173089D01*
X511271Y173112D01*
X511327Y173127D01*
X511400Y173170D01*
X511477Y173205D01*
X511522Y173243D01*
X511572Y173272D01*
X511630Y173334D01*
X511694Y173388D01*
X511726Y173437D01*
X511766Y173480D01*
X511805Y173555D01*
X511852Y173625D01*
X511869Y173681D01*
X511896Y173733D01*
X511907Y173801D01*
X511937Y173896D01*
X511940Y173996D01*
X511951Y174064D01*
X511951Y233317D01*
X511939Y233403D01*
X511936Y233491D01*
X511919Y233543D01*
X511911Y233598D01*
X511876Y233678D01*
X511849Y233761D01*
X511821Y233800D01*
X511795Y233858D01*
X511699Y233971D01*
X511654Y234035D01*
X486951Y258737D01*
X486951Y335936D01*
X486943Y335994D01*
X486945Y336052D01*
X486923Y336134D01*
X486911Y336218D01*
X486888Y336271D01*
X486873Y336327D01*
X486830Y336400D01*
X486795Y336477D01*
X486757Y336522D01*
X486728Y336572D01*
X486666Y336630D01*
X486612Y336694D01*
X486563Y336726D01*
X486520Y336766D01*
X486445Y336805D01*
X486375Y336852D01*
X486319Y336869D01*
X486267Y336896D01*
X486199Y336907D01*
X486104Y336937D01*
X486004Y336940D01*
X485936Y336951D01*
X458737Y336951D01*
X436951Y358737D01*
X436951Y362886D01*
X436951Y362887D01*
X436951Y362889D01*
X436931Y363030D01*
X436911Y363167D01*
X436911Y363169D01*
X436911Y363170D01*
X436852Y363300D01*
X436795Y363427D01*
X436794Y363428D01*
X436793Y363429D01*
X436700Y363538D01*
X436612Y363644D01*
X436610Y363644D01*
X436609Y363646D01*
X436596Y363654D01*
X436375Y363801D01*
X436346Y363810D01*
X436325Y363824D01*
X435971Y363970D01*
X433970Y365971D01*
X432887Y368585D01*
X432887Y371415D01*
X433970Y374029D01*
X435971Y376030D01*
X438585Y377113D01*
X441415Y377113D01*
X444029Y376030D01*
X446030Y374029D01*
X447113Y371415D01*
X447113Y368585D01*
X446030Y365971D01*
X444029Y363970D01*
X443675Y363824D01*
X443674Y363823D01*
X443673Y363822D01*
X443554Y363752D01*
X443431Y363679D01*
X443430Y363678D01*
X443428Y363677D01*
X443330Y363573D01*
X443235Y363472D01*
X443235Y363471D01*
X443234Y363470D01*
X443169Y363344D01*
X443105Y363220D01*
X443105Y363218D01*
X443104Y363217D01*
X443102Y363202D01*
X443050Y362941D01*
X443053Y362910D01*
X443049Y362886D01*
X443049Y361683D01*
X443061Y361597D01*
X443064Y361509D01*
X443081Y361457D01*
X443089Y361402D01*
X443124Y361322D01*
X443151Y361239D01*
X443179Y361200D01*
X443205Y361142D01*
X443301Y361029D01*
X443346Y360965D01*
X460965Y343346D01*
X461035Y343294D01*
X461099Y343234D01*
X461149Y343208D01*
X461193Y343175D01*
X461274Y343144D01*
X461352Y343104D01*
X461400Y343096D01*
X461458Y343074D01*
X461606Y343062D01*
X461683Y343049D01*
X491263Y343049D01*
X493049Y341263D01*
X493049Y261683D01*
X493061Y261597D01*
X493064Y261509D01*
X493081Y261457D01*
X493089Y261402D01*
X493124Y261322D01*
X493151Y261239D01*
X493179Y261200D01*
X493205Y261142D01*
X493301Y261029D01*
X493346Y260965D01*
X518049Y236263D01*
X518049Y168737D01*
X516263Y166951D01*
X451683Y166951D01*
X451597Y166939D01*
X451509Y166936D01*
X451457Y166919D01*
X451402Y166911D01*
X451322Y166876D01*
X451239Y166849D01*
X451200Y166821D01*
X451142Y166795D01*
X451029Y166699D01*
X450965Y166654D01*
X443346Y159035D01*
X443294Y158965D01*
X443234Y158901D01*
X443208Y158852D01*
X443175Y158807D01*
X443144Y158726D01*
X443104Y158648D01*
X443096Y158600D01*
X443074Y158542D01*
X443062Y158394D01*
X443049Y158317D01*
X443049Y108737D01*
X351263Y16951D01*
X328737Y16951D01*
G37*
%LPD*%
%LPC*%
G36*
X448585Y42887D02*
X448585Y42887D01*
X445971Y43970D01*
X443970Y45971D01*
X442887Y48585D01*
X442887Y51415D01*
X443970Y54029D01*
X445971Y56030D01*
X446325Y56176D01*
X446326Y56177D01*
X446327Y56178D01*
X446446Y56248D01*
X446569Y56321D01*
X446570Y56322D01*
X446572Y56323D01*
X446670Y56427D01*
X446765Y56528D01*
X446765Y56529D01*
X446766Y56530D01*
X446830Y56654D01*
X446895Y56780D01*
X446895Y56782D01*
X446896Y56783D01*
X446898Y56798D01*
X446950Y57059D01*
X446947Y57090D01*
X446951Y57114D01*
X446951Y121263D01*
X458737Y133049D01*
X518317Y133049D01*
X518403Y133061D01*
X518491Y133064D01*
X518543Y133081D01*
X518598Y133089D01*
X518678Y133124D01*
X518761Y133151D01*
X518800Y133179D01*
X518858Y133205D01*
X518971Y133301D01*
X519035Y133346D01*
X526654Y140965D01*
X526706Y141035D01*
X526766Y141099D01*
X526792Y141149D01*
X526825Y141193D01*
X526856Y141274D01*
X526896Y141352D01*
X526904Y141400D01*
X526926Y141458D01*
X526938Y141606D01*
X526951Y141683D01*
X526951Y259317D01*
X526939Y259403D01*
X526936Y259491D01*
X526919Y259543D01*
X526911Y259598D01*
X526876Y259678D01*
X526849Y259761D01*
X526821Y259800D01*
X526795Y259858D01*
X526699Y259971D01*
X526654Y260035D01*
X523671Y263018D01*
X523601Y263070D01*
X523537Y263130D01*
X523487Y263156D01*
X523443Y263189D01*
X523362Y263220D01*
X523284Y263260D01*
X523236Y263268D01*
X523178Y263290D01*
X523030Y263302D01*
X522953Y263315D01*
X505506Y263315D01*
X504315Y264506D01*
X504315Y285494D01*
X505506Y286685D01*
X522953Y286685D01*
X523039Y286697D01*
X523127Y286700D01*
X523179Y286717D01*
X523234Y286725D01*
X523314Y286760D01*
X523397Y286787D01*
X523436Y286815D01*
X523494Y286841D01*
X523607Y286937D01*
X523671Y286982D01*
X529737Y293049D01*
X862886Y293049D01*
X862887Y293049D01*
X862889Y293049D01*
X863030Y293069D01*
X863167Y293089D01*
X863169Y293089D01*
X863170Y293089D01*
X863300Y293148D01*
X863427Y293205D01*
X863428Y293206D01*
X863429Y293207D01*
X863538Y293300D01*
X863644Y293388D01*
X863644Y293390D01*
X863646Y293391D01*
X863654Y293404D01*
X863801Y293625D01*
X863810Y293654D01*
X863824Y293675D01*
X863970Y294029D01*
X865971Y296030D01*
X868585Y297113D01*
X871415Y297113D01*
X874029Y296030D01*
X876030Y294029D01*
X877113Y291415D01*
X877113Y288585D01*
X876030Y285971D01*
X874029Y283970D01*
X871415Y282887D01*
X868585Y282887D01*
X865971Y283970D01*
X863970Y285971D01*
X863824Y286325D01*
X863823Y286326D01*
X863822Y286327D01*
X863753Y286444D01*
X863679Y286569D01*
X863678Y286570D01*
X863677Y286572D01*
X863576Y286667D01*
X863472Y286765D01*
X863471Y286765D01*
X863470Y286766D01*
X863344Y286831D01*
X863220Y286895D01*
X863218Y286895D01*
X863217Y286896D01*
X863202Y286898D01*
X862941Y286950D01*
X862910Y286947D01*
X862886Y286951D01*
X532683Y286951D01*
X532597Y286939D01*
X532509Y286936D01*
X532457Y286919D01*
X532402Y286911D01*
X532322Y286876D01*
X532239Y286849D01*
X532200Y286821D01*
X532142Y286795D01*
X532029Y286699D01*
X531965Y286654D01*
X527982Y282671D01*
X527930Y282601D01*
X527870Y282537D01*
X527844Y282487D01*
X527811Y282443D01*
X527780Y282362D01*
X527740Y282284D01*
X527732Y282236D01*
X527710Y282178D01*
X527698Y282030D01*
X527685Y281953D01*
X527685Y268047D01*
X527697Y267961D01*
X527700Y267873D01*
X527717Y267821D01*
X527725Y267766D01*
X527760Y267686D01*
X527787Y267603D01*
X527815Y267564D01*
X527841Y267506D01*
X527925Y267406D01*
X527943Y267377D01*
X527959Y267362D01*
X527982Y267329D01*
X533049Y262263D01*
X533049Y138737D01*
X521263Y126951D01*
X461683Y126951D01*
X461597Y126939D01*
X461509Y126936D01*
X461457Y126919D01*
X461402Y126911D01*
X461322Y126876D01*
X461239Y126849D01*
X461200Y126821D01*
X461142Y126795D01*
X461029Y126699D01*
X460965Y126654D01*
X453346Y119035D01*
X453294Y118965D01*
X453234Y118901D01*
X453208Y118851D01*
X453175Y118807D01*
X453144Y118726D01*
X453104Y118648D01*
X453096Y118600D01*
X453074Y118542D01*
X453062Y118394D01*
X453049Y118317D01*
X453049Y57114D01*
X453049Y57113D01*
X453049Y57111D01*
X453070Y56966D01*
X453089Y56833D01*
X453089Y56831D01*
X453089Y56830D01*
X453148Y56700D01*
X453205Y56573D01*
X453206Y56572D01*
X453207Y56571D01*
X453300Y56462D01*
X453388Y56356D01*
X453390Y56356D01*
X453391Y56354D01*
X453404Y56346D01*
X453625Y56199D01*
X453654Y56190D01*
X453675Y56176D01*
X454029Y56030D01*
X456030Y54029D01*
X457113Y51415D01*
X457113Y48585D01*
X456030Y45971D01*
X454029Y43970D01*
X451415Y42887D01*
X448585Y42887D01*
G37*
%LPD*%
%LPC*%
G36*
X399585Y190009D02*
X399585Y190009D01*
X396971Y191092D01*
X394970Y193093D01*
X393887Y195707D01*
X393887Y198537D01*
X394970Y201151D01*
X396971Y203152D01*
X397325Y203298D01*
X397326Y203299D01*
X397327Y203300D01*
X397446Y203370D01*
X397569Y203443D01*
X397570Y203444D01*
X397572Y203445D01*
X397670Y203549D01*
X397765Y203650D01*
X397765Y203651D01*
X397766Y203652D01*
X397831Y203778D01*
X397895Y203902D01*
X397895Y203904D01*
X397896Y203905D01*
X397898Y203920D01*
X397950Y204181D01*
X397947Y204212D01*
X397951Y204236D01*
X397951Y207317D01*
X397939Y207403D01*
X397936Y207491D01*
X397919Y207543D01*
X397911Y207598D01*
X397876Y207678D01*
X397849Y207761D01*
X397821Y207800D01*
X397795Y207858D01*
X397699Y207971D01*
X397654Y208035D01*
X389035Y216654D01*
X388965Y216706D01*
X388901Y216766D01*
X388851Y216792D01*
X388807Y216825D01*
X388726Y216856D01*
X388648Y216896D01*
X388600Y216904D01*
X388542Y216926D01*
X388394Y216938D01*
X388317Y216951D01*
X-1263Y216951D01*
X-3346Y219034D01*
X-3346Y219035D01*
X-7125Y222814D01*
X-7126Y222815D01*
X-7127Y222816D01*
X-7241Y222901D01*
X-7352Y222985D01*
X-7354Y222985D01*
X-7355Y222986D01*
X-7487Y223036D01*
X-7618Y223086D01*
X-7620Y223086D01*
X-7621Y223086D01*
X-7760Y223098D01*
X-7901Y223109D01*
X-7903Y223109D01*
X-7904Y223109D01*
X-7919Y223106D01*
X-8180Y223053D01*
X-8207Y223039D01*
X-8232Y223034D01*
X-8585Y222887D01*
X-11415Y222887D01*
X-14029Y223970D01*
X-16030Y225971D01*
X-17113Y228585D01*
X-17113Y231415D01*
X-16030Y234029D01*
X-14029Y236030D01*
X-11415Y237113D01*
X-8585Y237113D01*
X-5971Y236030D01*
X-3970Y234029D01*
X-2887Y231415D01*
X-2887Y228585D01*
X-3034Y228232D01*
X-3034Y228230D01*
X-3035Y228229D01*
X-3069Y228096D01*
X-3105Y227956D01*
X-3105Y227955D01*
X-3105Y227953D01*
X-3101Y227812D01*
X-3097Y227672D01*
X-3096Y227671D01*
X-3096Y227669D01*
X-3053Y227535D01*
X-3010Y227401D01*
X-3009Y227400D01*
X-3009Y227399D01*
X-3000Y227386D01*
X-2852Y227165D01*
X-2828Y227145D01*
X-2814Y227125D01*
X965Y223346D01*
X1035Y223294D01*
X1099Y223234D01*
X1149Y223208D01*
X1193Y223175D01*
X1274Y223144D01*
X1352Y223104D01*
X1400Y223096D01*
X1458Y223074D01*
X1606Y223062D01*
X1683Y223049D01*
X391263Y223049D01*
X401816Y212496D01*
X401907Y212427D01*
X401995Y212353D01*
X402021Y212342D01*
X402043Y212325D01*
X402150Y212284D01*
X402255Y212237D01*
X402283Y212234D01*
X402309Y212224D01*
X402423Y212214D01*
X402537Y212199D01*
X402564Y212203D01*
X402592Y212200D01*
X402704Y212223D01*
X402818Y212239D01*
X402843Y212251D01*
X402871Y212256D01*
X402972Y212309D01*
X403077Y212356D01*
X403098Y212374D01*
X403123Y212387D01*
X403206Y212466D01*
X403294Y212541D01*
X403307Y212562D01*
X403329Y212583D01*
X403464Y212813D01*
X403472Y212825D01*
X403970Y214029D01*
X405971Y216030D01*
X406325Y216176D01*
X406326Y216177D01*
X406327Y216178D01*
X406446Y216248D01*
X406569Y216321D01*
X406570Y216322D01*
X406572Y216323D01*
X406670Y216427D01*
X406765Y216528D01*
X406765Y216529D01*
X406766Y216530D01*
X406830Y216654D01*
X406895Y216780D01*
X406895Y216782D01*
X406896Y216783D01*
X406898Y216798D01*
X406950Y217059D01*
X406947Y217090D01*
X406951Y217114D01*
X406951Y252886D01*
X406951Y252887D01*
X406951Y252889D01*
X406931Y253030D01*
X406911Y253167D01*
X406911Y253169D01*
X406911Y253170D01*
X406852Y253300D01*
X406795Y253427D01*
X406794Y253428D01*
X406793Y253429D01*
X406700Y253538D01*
X406612Y253644D01*
X406610Y253644D01*
X406609Y253646D01*
X406596Y253654D01*
X406375Y253801D01*
X406346Y253810D01*
X406325Y253824D01*
X405971Y253970D01*
X403970Y255971D01*
X402887Y258585D01*
X402887Y261415D01*
X403970Y264029D01*
X405971Y266030D01*
X408585Y267113D01*
X411415Y267113D01*
X414029Y266030D01*
X416030Y264029D01*
X417113Y261415D01*
X417113Y258585D01*
X416030Y255971D01*
X414029Y253970D01*
X413675Y253824D01*
X413674Y253823D01*
X413673Y253822D01*
X413554Y253752D01*
X413431Y253679D01*
X413430Y253678D01*
X413428Y253677D01*
X413330Y253573D01*
X413235Y253472D01*
X413235Y253471D01*
X413234Y253470D01*
X413166Y253338D01*
X413105Y253220D01*
X413105Y253218D01*
X413104Y253217D01*
X413102Y253202D01*
X413050Y252941D01*
X413053Y252910D01*
X413049Y252886D01*
X413049Y217114D01*
X413049Y217113D01*
X413049Y217111D01*
X413070Y216966D01*
X413089Y216833D01*
X413089Y216831D01*
X413089Y216830D01*
X413148Y216700D01*
X413205Y216573D01*
X413206Y216572D01*
X413207Y216571D01*
X413300Y216462D01*
X413388Y216356D01*
X413390Y216356D01*
X413391Y216354D01*
X413404Y216346D01*
X413625Y216199D01*
X413654Y216190D01*
X413675Y216176D01*
X414029Y216030D01*
X416030Y214029D01*
X417113Y211415D01*
X417113Y208585D01*
X416030Y205971D01*
X414029Y203970D01*
X411415Y202887D01*
X408585Y202887D01*
X407682Y203262D01*
X407598Y203283D01*
X407518Y203314D01*
X407461Y203318D01*
X407406Y203332D01*
X407320Y203330D01*
X407235Y203337D01*
X407179Y203326D01*
X407122Y203324D01*
X407040Y203298D01*
X406956Y203281D01*
X406906Y203255D01*
X406851Y203238D01*
X406780Y203190D01*
X406704Y203150D01*
X406663Y203111D01*
X406615Y203079D01*
X406560Y203014D01*
X406498Y202954D01*
X406469Y202905D01*
X406432Y202862D01*
X406397Y202783D01*
X406354Y202709D01*
X406340Y202654D01*
X406317Y202602D01*
X406305Y202517D01*
X406284Y202434D01*
X406286Y202377D01*
X406278Y202320D01*
X406290Y202235D01*
X406293Y202150D01*
X406310Y202096D01*
X406319Y202039D01*
X406354Y201961D01*
X406380Y201879D01*
X406409Y201839D01*
X406436Y201780D01*
X406530Y201669D01*
X406575Y201606D01*
X407030Y201151D01*
X408113Y198537D01*
X408113Y195707D01*
X407030Y193093D01*
X405029Y191092D01*
X402415Y190009D01*
X399585Y190009D01*
G37*
%LPD*%
%LPC*%
G36*
X418585Y266887D02*
X418585Y266887D01*
X415971Y267970D01*
X413970Y269971D01*
X413824Y270325D01*
X413823Y270326D01*
X413822Y270327D01*
X413752Y270446D01*
X413679Y270569D01*
X413678Y270570D01*
X413677Y270572D01*
X413575Y270667D01*
X413472Y270765D01*
X413471Y270765D01*
X413470Y270766D01*
X413344Y270831D01*
X413220Y270895D01*
X413218Y270895D01*
X413217Y270896D01*
X413202Y270898D01*
X412941Y270950D01*
X412910Y270947D01*
X412886Y270951D01*
X-5263Y270951D01*
X-7125Y272814D01*
X-7126Y272815D01*
X-7127Y272816D01*
X-7203Y272873D01*
X-7237Y272904D01*
X-7264Y272918D01*
X-7352Y272985D01*
X-7354Y272985D01*
X-7355Y272986D01*
X-7485Y273035D01*
X-7618Y273086D01*
X-7620Y273086D01*
X-7621Y273086D01*
X-7760Y273098D01*
X-7901Y273109D01*
X-7903Y273109D01*
X-7904Y273109D01*
X-7919Y273106D01*
X-8180Y273053D01*
X-8207Y273039D01*
X-8232Y273034D01*
X-8585Y272887D01*
X-11415Y272887D01*
X-14029Y273970D01*
X-16030Y275971D01*
X-17113Y278585D01*
X-17113Y281415D01*
X-16030Y284029D01*
X-14029Y286030D01*
X-11415Y287113D01*
X-8585Y287113D01*
X-5971Y286030D01*
X-3970Y284029D01*
X-2887Y281415D01*
X-2887Y278585D01*
X-2942Y278453D01*
X-2971Y278341D01*
X-3006Y278232D01*
X-3006Y278204D01*
X-3013Y278177D01*
X-3010Y278063D01*
X-3013Y277948D01*
X-3006Y277921D01*
X-3005Y277893D01*
X-2970Y277784D01*
X-2941Y277673D01*
X-2927Y277649D01*
X-2918Y277622D01*
X-2854Y277527D01*
X-2796Y277428D01*
X-2776Y277409D01*
X-2760Y277386D01*
X-2672Y277312D01*
X-2588Y277234D01*
X-2564Y277221D01*
X-2543Y277203D01*
X-2437Y277156D01*
X-2335Y277104D01*
X-2311Y277100D01*
X-2283Y277088D01*
X-2019Y277051D01*
X-2004Y277049D01*
X412886Y277049D01*
X412887Y277049D01*
X412889Y277049D01*
X413030Y277069D01*
X413167Y277089D01*
X413169Y277089D01*
X413170Y277089D01*
X413300Y277148D01*
X413427Y277205D01*
X413428Y277206D01*
X413429Y277207D01*
X413538Y277300D01*
X413644Y277388D01*
X413644Y277390D01*
X413646Y277391D01*
X413654Y277404D01*
X413801Y277625D01*
X413810Y277654D01*
X413824Y277675D01*
X413970Y278029D01*
X415971Y280030D01*
X418585Y281113D01*
X421415Y281113D01*
X424029Y280030D01*
X426030Y278029D01*
X427113Y275415D01*
X427113Y272585D01*
X426030Y269971D01*
X424029Y267970D01*
X421415Y266887D01*
X418585Y266887D01*
G37*
%LPD*%
%LPC*%
G36*
X888585Y202887D02*
X888585Y202887D01*
X885971Y203970D01*
X883970Y205971D01*
X882887Y208585D01*
X882887Y211415D01*
X883970Y214029D01*
X885971Y216030D01*
X888585Y217113D01*
X891415Y217113D01*
X891768Y216966D01*
X891770Y216966D01*
X891771Y216965D01*
X891903Y216932D01*
X892044Y216895D01*
X892045Y216895D01*
X892047Y216895D01*
X892188Y216899D01*
X892328Y216903D01*
X892329Y216904D01*
X892331Y216904D01*
X892467Y216948D01*
X892599Y216990D01*
X892600Y216991D01*
X892601Y216991D01*
X892614Y217000D01*
X892835Y217148D01*
X892854Y217172D01*
X892875Y217186D01*
X894737Y219049D01*
X1290317Y219049D01*
X1290403Y219061D01*
X1290491Y219064D01*
X1290543Y219081D01*
X1290598Y219089D01*
X1290678Y219124D01*
X1290761Y219151D01*
X1290800Y219179D01*
X1290858Y219205D01*
X1290971Y219301D01*
X1291035Y219346D01*
X1302814Y231125D01*
X1302815Y231126D01*
X1302816Y231127D01*
X1302901Y231241D01*
X1302985Y231352D01*
X1302985Y231354D01*
X1302986Y231355D01*
X1303036Y231487D01*
X1303086Y231618D01*
X1303086Y231620D01*
X1303086Y231621D01*
X1303098Y231760D01*
X1303109Y231901D01*
X1303109Y231903D01*
X1303109Y231904D01*
X1303106Y231919D01*
X1303053Y232180D01*
X1303039Y232207D01*
X1303034Y232232D01*
X1302887Y232585D01*
X1302887Y235415D01*
X1303970Y238029D01*
X1305971Y240030D01*
X1308585Y241113D01*
X1311415Y241113D01*
X1314029Y240030D01*
X1316030Y238029D01*
X1317113Y235415D01*
X1317113Y232585D01*
X1316030Y229971D01*
X1314029Y227970D01*
X1311415Y226887D01*
X1308585Y226887D01*
X1308232Y227034D01*
X1308230Y227034D01*
X1308229Y227035D01*
X1308096Y227069D01*
X1307956Y227105D01*
X1307955Y227105D01*
X1307953Y227105D01*
X1307812Y227101D01*
X1307672Y227097D01*
X1307671Y227096D01*
X1307669Y227096D01*
X1307535Y227053D01*
X1307401Y227010D01*
X1307400Y227009D01*
X1307399Y227009D01*
X1307386Y227000D01*
X1307165Y226852D01*
X1307146Y226828D01*
X1307125Y226814D01*
X1295346Y215035D01*
X1295346Y215034D01*
X1293263Y212951D01*
X897996Y212951D01*
X897882Y212935D01*
X897768Y212925D01*
X897742Y212915D01*
X897714Y212911D01*
X897609Y212864D01*
X897502Y212823D01*
X897480Y212807D01*
X897455Y212795D01*
X897367Y212721D01*
X897276Y212652D01*
X897259Y212629D01*
X897238Y212612D01*
X897174Y212516D01*
X897105Y212424D01*
X897096Y212398D01*
X897080Y212375D01*
X897045Y212265D01*
X897005Y212158D01*
X897003Y212130D01*
X896994Y212104D01*
X896992Y211989D01*
X896982Y211875D01*
X896988Y211850D01*
X896987Y211820D01*
X897054Y211563D01*
X897058Y211547D01*
X897113Y211415D01*
X897113Y208585D01*
X896030Y205971D01*
X894029Y203970D01*
X891415Y202887D01*
X888585Y202887D01*
G37*
%LPD*%
%LPC*%
G36*
X888585Y152887D02*
X888585Y152887D01*
X885971Y153970D01*
X883970Y155971D01*
X882887Y158585D01*
X882887Y161415D01*
X883970Y164029D01*
X885971Y166030D01*
X888585Y167113D01*
X891415Y167113D01*
X893797Y166126D01*
X893827Y166118D01*
X893854Y166104D01*
X893932Y166091D01*
X894072Y166055D01*
X894137Y166057D01*
X894185Y166049D01*
X1289317Y166049D01*
X1289403Y166061D01*
X1289491Y166064D01*
X1289543Y166081D01*
X1289598Y166089D01*
X1289678Y166124D01*
X1289761Y166151D01*
X1289800Y166179D01*
X1289858Y166205D01*
X1289971Y166301D01*
X1290035Y166346D01*
X1302814Y179125D01*
X1302815Y179126D01*
X1302816Y179127D01*
X1302901Y179241D01*
X1302985Y179352D01*
X1302985Y179354D01*
X1302986Y179355D01*
X1303036Y179487D01*
X1303086Y179618D01*
X1303086Y179620D01*
X1303086Y179621D01*
X1303097Y179757D01*
X1303109Y179901D01*
X1303109Y179903D01*
X1303109Y179904D01*
X1303106Y179919D01*
X1303053Y180180D01*
X1303039Y180207D01*
X1303034Y180232D01*
X1302887Y180585D01*
X1302887Y183415D01*
X1303970Y186029D01*
X1305971Y188030D01*
X1308585Y189113D01*
X1311415Y189113D01*
X1314029Y188030D01*
X1316030Y186029D01*
X1317113Y183415D01*
X1317113Y180585D01*
X1316030Y177971D01*
X1314029Y175970D01*
X1311415Y174887D01*
X1308585Y174887D01*
X1308232Y175034D01*
X1308230Y175034D01*
X1308229Y175035D01*
X1308097Y175068D01*
X1307956Y175105D01*
X1307955Y175105D01*
X1307953Y175105D01*
X1307812Y175101D01*
X1307672Y175097D01*
X1307671Y175096D01*
X1307669Y175096D01*
X1307535Y175053D01*
X1307401Y175010D01*
X1307400Y175009D01*
X1307399Y175009D01*
X1307386Y175000D01*
X1307165Y174852D01*
X1307146Y174828D01*
X1307125Y174814D01*
X1294346Y162035D01*
X1294346Y162034D01*
X1292263Y159951D01*
X898128Y159951D01*
X898070Y159943D01*
X898012Y159945D01*
X897930Y159923D01*
X897846Y159911D01*
X897793Y159888D01*
X897737Y159873D01*
X897664Y159830D01*
X897587Y159795D01*
X897542Y159757D01*
X897492Y159728D01*
X897434Y159666D01*
X897370Y159612D01*
X897338Y159563D01*
X897298Y159520D01*
X897259Y159445D01*
X897212Y159375D01*
X897195Y159319D01*
X897168Y159267D01*
X897157Y159199D01*
X897127Y159104D01*
X897124Y159004D01*
X897113Y158936D01*
X897113Y158585D01*
X896030Y155971D01*
X894029Y153970D01*
X891415Y152887D01*
X888585Y152887D01*
G37*
%LPD*%
%LPC*%
G36*
X888585Y252887D02*
X888585Y252887D01*
X885971Y253970D01*
X883970Y255971D01*
X882887Y258585D01*
X882887Y261415D01*
X883970Y264029D01*
X885971Y266030D01*
X888585Y267113D01*
X891415Y267113D01*
X891768Y266966D01*
X891770Y266966D01*
X891771Y266965D01*
X891903Y266932D01*
X892044Y266895D01*
X892045Y266895D01*
X892047Y266895D01*
X892188Y266899D01*
X892328Y266903D01*
X892329Y266904D01*
X892331Y266904D01*
X892468Y266948D01*
X892599Y266990D01*
X892600Y266991D01*
X892601Y266991D01*
X892614Y267001D01*
X892835Y267148D01*
X892854Y267172D01*
X892875Y267186D01*
X894654Y268965D01*
X894654Y268966D01*
X896737Y271049D01*
X1296317Y271049D01*
X1296403Y271061D01*
X1296491Y271064D01*
X1296543Y271081D01*
X1296598Y271089D01*
X1296678Y271124D01*
X1296761Y271151D01*
X1296800Y271179D01*
X1296858Y271205D01*
X1296971Y271301D01*
X1297035Y271346D01*
X1302814Y277125D01*
X1302815Y277126D01*
X1302816Y277127D01*
X1302901Y277241D01*
X1302985Y277352D01*
X1302985Y277354D01*
X1302986Y277355D01*
X1303034Y277481D01*
X1303086Y277618D01*
X1303086Y277620D01*
X1303086Y277621D01*
X1303098Y277760D01*
X1303109Y277901D01*
X1303109Y277903D01*
X1303109Y277904D01*
X1303106Y277919D01*
X1303053Y278180D01*
X1303039Y278207D01*
X1303034Y278232D01*
X1302887Y278585D01*
X1302887Y281415D01*
X1303970Y284029D01*
X1305971Y286030D01*
X1308585Y287113D01*
X1311415Y287113D01*
X1314029Y286030D01*
X1316030Y284029D01*
X1317113Y281415D01*
X1317113Y278585D01*
X1316030Y275971D01*
X1314029Y273970D01*
X1311415Y272887D01*
X1308585Y272887D01*
X1308232Y273034D01*
X1308230Y273034D01*
X1308229Y273035D01*
X1308097Y273069D01*
X1307956Y273105D01*
X1307955Y273105D01*
X1307953Y273105D01*
X1307812Y273101D01*
X1307672Y273097D01*
X1307671Y273096D01*
X1307669Y273096D01*
X1307535Y273053D01*
X1307401Y273010D01*
X1307400Y273009D01*
X1307399Y273009D01*
X1307386Y273000D01*
X1307300Y272942D01*
X1307280Y272933D01*
X1307256Y272912D01*
X1307165Y272852D01*
X1307146Y272828D01*
X1307125Y272814D01*
X1301346Y267035D01*
X1301346Y267034D01*
X1299263Y264951D01*
X899683Y264951D01*
X899597Y264939D01*
X899509Y264936D01*
X899457Y264919D01*
X899402Y264911D01*
X899322Y264876D01*
X899239Y264849D01*
X899200Y264821D01*
X899142Y264795D01*
X899029Y264699D01*
X898965Y264654D01*
X897186Y262875D01*
X897185Y262874D01*
X897184Y262873D01*
X897099Y262759D01*
X897015Y262648D01*
X897015Y262646D01*
X897014Y262645D01*
X896965Y262515D01*
X896914Y262382D01*
X896914Y262380D01*
X896914Y262379D01*
X896902Y262240D01*
X896891Y262099D01*
X896891Y262097D01*
X896891Y262096D01*
X896894Y262081D01*
X896947Y261820D01*
X896961Y261793D01*
X896966Y261768D01*
X897113Y261415D01*
X897113Y258585D01*
X896030Y255971D01*
X894029Y253970D01*
X891415Y252887D01*
X888585Y252887D01*
G37*
%LPD*%
%LPC*%
G36*
X408585Y317887D02*
X408585Y317887D01*
X405971Y318970D01*
X403970Y320971D01*
X403824Y321325D01*
X403823Y321326D01*
X403822Y321327D01*
X403752Y321446D01*
X403679Y321569D01*
X403678Y321570D01*
X403677Y321572D01*
X403573Y321670D01*
X403472Y321765D01*
X403471Y321765D01*
X403470Y321766D01*
X403344Y321831D01*
X403220Y321895D01*
X403218Y321895D01*
X403217Y321896D01*
X403202Y321898D01*
X402941Y321950D01*
X402910Y321947D01*
X402886Y321951D01*
X52737Y321951D01*
X36951Y337737D01*
X36951Y355886D01*
X36951Y355887D01*
X36951Y355889D01*
X36931Y356027D01*
X36911Y356167D01*
X36911Y356169D01*
X36911Y356170D01*
X36852Y356300D01*
X36795Y356427D01*
X36794Y356428D01*
X36793Y356429D01*
X36700Y356538D01*
X36612Y356644D01*
X36610Y356644D01*
X36609Y356646D01*
X36596Y356654D01*
X36375Y356801D01*
X36346Y356810D01*
X36325Y356824D01*
X35971Y356970D01*
X33970Y358971D01*
X32887Y361585D01*
X32887Y364415D01*
X33970Y367029D01*
X35971Y369030D01*
X38585Y370113D01*
X41415Y370113D01*
X44029Y369030D01*
X46030Y367029D01*
X47113Y364415D01*
X47113Y361585D01*
X46030Y358971D01*
X44029Y356970D01*
X43675Y356824D01*
X43674Y356823D01*
X43673Y356822D01*
X43554Y356752D01*
X43431Y356679D01*
X43430Y356678D01*
X43428Y356677D01*
X43330Y356573D01*
X43235Y356472D01*
X43235Y356471D01*
X43234Y356470D01*
X43169Y356344D01*
X43105Y356220D01*
X43105Y356218D01*
X43104Y356217D01*
X43102Y356202D01*
X43050Y355941D01*
X43053Y355910D01*
X43049Y355886D01*
X43049Y340683D01*
X43061Y340597D01*
X43064Y340509D01*
X43081Y340457D01*
X43089Y340402D01*
X43124Y340322D01*
X43151Y340239D01*
X43179Y340200D01*
X43205Y340142D01*
X43301Y340029D01*
X43346Y339965D01*
X54965Y328346D01*
X55035Y328294D01*
X55099Y328234D01*
X55149Y328208D01*
X55193Y328175D01*
X55274Y328144D01*
X55352Y328104D01*
X55400Y328096D01*
X55458Y328074D01*
X55606Y328062D01*
X55683Y328049D01*
X402886Y328049D01*
X402887Y328049D01*
X402889Y328049D01*
X403030Y328069D01*
X403167Y328089D01*
X403169Y328089D01*
X403170Y328089D01*
X403300Y328148D01*
X403427Y328205D01*
X403428Y328206D01*
X403429Y328207D01*
X403538Y328300D01*
X403644Y328388D01*
X403644Y328390D01*
X403646Y328391D01*
X403654Y328404D01*
X403801Y328625D01*
X403810Y328654D01*
X403824Y328675D01*
X403970Y329029D01*
X405971Y331030D01*
X408585Y332113D01*
X411415Y332113D01*
X414029Y331030D01*
X416030Y329029D01*
X417113Y326415D01*
X417113Y323585D01*
X416030Y320971D01*
X414029Y318970D01*
X411415Y317887D01*
X408585Y317887D01*
G37*
%LPD*%
%LPC*%
G36*
X888585Y312887D02*
X888585Y312887D01*
X885971Y313970D01*
X883970Y315971D01*
X882887Y318585D01*
X882887Y321415D01*
X883970Y324029D01*
X885971Y326030D01*
X888585Y327113D01*
X891415Y327113D01*
X891768Y326966D01*
X891770Y326966D01*
X891771Y326965D01*
X891792Y326960D01*
X891805Y326953D01*
X891845Y326946D01*
X891904Y326931D01*
X892044Y326895D01*
X892045Y326895D01*
X892047Y326895D01*
X892135Y326898D01*
X892136Y326897D01*
X892165Y326897D01*
X892177Y326899D01*
X892188Y326899D01*
X892328Y326903D01*
X892329Y326904D01*
X892331Y326904D01*
X892424Y326934D01*
X892447Y326937D01*
X892480Y326952D01*
X892599Y326990D01*
X892600Y326991D01*
X892601Y326991D01*
X892614Y327000D01*
X892667Y327036D01*
X892706Y327054D01*
X892756Y327096D01*
X892835Y327148D01*
X892854Y327172D01*
X892875Y327186D01*
X898737Y333049D01*
X1243317Y333049D01*
X1243403Y333061D01*
X1243491Y333064D01*
X1243543Y333081D01*
X1243598Y333089D01*
X1243678Y333124D01*
X1243761Y333151D01*
X1243800Y333179D01*
X1243858Y333205D01*
X1243971Y333301D01*
X1244035Y333346D01*
X1250814Y340125D01*
X1250815Y340126D01*
X1250816Y340127D01*
X1250899Y340239D01*
X1250985Y340352D01*
X1250985Y340354D01*
X1250986Y340355D01*
X1251036Y340487D01*
X1251086Y340618D01*
X1251086Y340620D01*
X1251086Y340621D01*
X1251098Y340760D01*
X1251109Y340901D01*
X1251109Y340903D01*
X1251109Y340904D01*
X1251106Y340919D01*
X1251053Y341180D01*
X1251039Y341207D01*
X1251034Y341232D01*
X1250887Y341585D01*
X1250887Y344415D01*
X1251970Y347029D01*
X1253971Y349030D01*
X1256585Y350113D01*
X1259415Y350113D01*
X1262029Y349030D01*
X1264030Y347029D01*
X1265113Y344415D01*
X1265113Y341585D01*
X1264030Y338971D01*
X1262029Y336970D01*
X1259415Y335887D01*
X1256585Y335887D01*
X1256232Y336034D01*
X1256230Y336034D01*
X1256229Y336035D01*
X1256096Y336069D01*
X1255956Y336105D01*
X1255955Y336105D01*
X1255953Y336105D01*
X1255812Y336101D01*
X1255672Y336097D01*
X1255671Y336096D01*
X1255669Y336096D01*
X1255534Y336052D01*
X1255401Y336010D01*
X1255400Y336009D01*
X1255399Y336009D01*
X1255386Y336000D01*
X1255165Y335852D01*
X1255146Y335828D01*
X1255125Y335814D01*
X1248346Y329035D01*
X1248346Y329034D01*
X1246263Y326951D01*
X901683Y326951D01*
X901597Y326939D01*
X901509Y326936D01*
X901457Y326919D01*
X901402Y326911D01*
X901322Y326876D01*
X901239Y326849D01*
X901200Y326821D01*
X901142Y326795D01*
X901029Y326699D01*
X900965Y326654D01*
X897186Y322875D01*
X897185Y322874D01*
X897184Y322873D01*
X897099Y322759D01*
X897015Y322648D01*
X897015Y322646D01*
X897014Y322645D01*
X896964Y322513D01*
X896914Y322382D01*
X896914Y322380D01*
X896914Y322379D01*
X896902Y322240D01*
X896891Y322099D01*
X896891Y322097D01*
X896891Y322096D01*
X896894Y322081D01*
X896947Y321820D01*
X896961Y321793D01*
X896966Y321768D01*
X897113Y321415D01*
X897113Y318585D01*
X896030Y315971D01*
X894029Y313970D01*
X891415Y312887D01*
X888585Y312887D01*
G37*
%LPD*%
%LPC*%
G36*
X928585Y102887D02*
X928585Y102887D01*
X925971Y103970D01*
X923970Y105971D01*
X922887Y108585D01*
X922887Y111415D01*
X923970Y114029D01*
X925971Y116030D01*
X928585Y117113D01*
X931415Y117113D01*
X931768Y116966D01*
X931770Y116966D01*
X931771Y116965D01*
X931904Y116931D01*
X932044Y116895D01*
X932045Y116895D01*
X932047Y116895D01*
X932188Y116899D01*
X932328Y116903D01*
X932329Y116904D01*
X932331Y116904D01*
X932465Y116947D01*
X932599Y116990D01*
X932600Y116991D01*
X932601Y116991D01*
X932614Y117000D01*
X932835Y117148D01*
X932854Y117172D01*
X932875Y117186D01*
X942737Y127049D01*
X1280886Y127049D01*
X1280887Y127049D01*
X1280889Y127049D01*
X1281030Y127069D01*
X1281167Y127089D01*
X1281169Y127089D01*
X1281170Y127089D01*
X1281300Y127148D01*
X1281427Y127205D01*
X1281428Y127206D01*
X1281429Y127207D01*
X1281538Y127300D01*
X1281644Y127388D01*
X1281644Y127390D01*
X1281646Y127391D01*
X1281654Y127404D01*
X1281801Y127625D01*
X1281810Y127654D01*
X1281824Y127675D01*
X1281970Y128029D01*
X1283971Y130030D01*
X1286585Y131113D01*
X1289415Y131113D01*
X1292029Y130030D01*
X1294030Y128029D01*
X1295113Y125415D01*
X1295113Y122585D01*
X1294030Y119971D01*
X1292029Y117970D01*
X1289415Y116887D01*
X1286585Y116887D01*
X1283971Y117970D01*
X1281970Y119971D01*
X1281824Y120325D01*
X1281823Y120326D01*
X1281822Y120327D01*
X1281752Y120446D01*
X1281679Y120569D01*
X1281678Y120570D01*
X1281677Y120572D01*
X1281573Y120670D01*
X1281472Y120765D01*
X1281471Y120765D01*
X1281470Y120766D01*
X1281344Y120831D01*
X1281220Y120895D01*
X1281218Y120895D01*
X1281217Y120896D01*
X1281202Y120898D01*
X1280941Y120950D01*
X1280910Y120947D01*
X1280886Y120951D01*
X945683Y120951D01*
X945597Y120939D01*
X945509Y120936D01*
X945457Y120919D01*
X945402Y120911D01*
X945322Y120876D01*
X945239Y120849D01*
X945200Y120821D01*
X945142Y120795D01*
X945029Y120699D01*
X944965Y120654D01*
X937186Y112875D01*
X937185Y112874D01*
X937184Y112873D01*
X937099Y112759D01*
X937015Y112648D01*
X937015Y112646D01*
X937014Y112645D01*
X936964Y112512D01*
X936914Y112382D01*
X936914Y112380D01*
X936914Y112379D01*
X936902Y112240D01*
X936891Y112099D01*
X936891Y112097D01*
X936891Y112096D01*
X936894Y112081D01*
X936947Y111820D01*
X936961Y111793D01*
X936966Y111768D01*
X937113Y111415D01*
X937113Y108585D01*
X936030Y105971D01*
X934029Y103970D01*
X931415Y102887D01*
X928585Y102887D01*
G37*
%LPD*%
%LPC*%
G36*
X938585Y372887D02*
X938585Y372887D01*
X935971Y373970D01*
X933970Y375971D01*
X932887Y378585D01*
X932887Y381415D01*
X933970Y384029D01*
X935971Y386030D01*
X938585Y387113D01*
X941415Y387113D01*
X941768Y386966D01*
X941770Y386966D01*
X941771Y386965D01*
X941904Y386931D01*
X942044Y386895D01*
X942045Y386895D01*
X942047Y386895D01*
X942188Y386899D01*
X942328Y386903D01*
X942329Y386904D01*
X942331Y386904D01*
X942465Y386947D01*
X942599Y386990D01*
X942600Y386991D01*
X942601Y386991D01*
X942614Y387000D01*
X942835Y387148D01*
X942855Y387172D01*
X942875Y387186D01*
X946654Y390965D01*
X946654Y390966D01*
X948737Y393049D01*
X1198317Y393049D01*
X1198403Y393061D01*
X1198491Y393064D01*
X1198543Y393081D01*
X1198598Y393089D01*
X1198678Y393124D01*
X1198761Y393151D01*
X1198800Y393179D01*
X1198858Y393205D01*
X1198971Y393301D01*
X1199035Y393346D01*
X1202814Y397125D01*
X1202815Y397126D01*
X1202816Y397127D01*
X1202904Y397246D01*
X1202985Y397352D01*
X1202985Y397354D01*
X1202986Y397355D01*
X1203036Y397489D01*
X1203086Y397618D01*
X1203086Y397620D01*
X1203086Y397621D01*
X1203098Y397760D01*
X1203109Y397901D01*
X1203109Y397903D01*
X1203109Y397904D01*
X1203106Y397919D01*
X1203053Y398180D01*
X1203039Y398207D01*
X1203034Y398232D01*
X1202887Y398585D01*
X1202887Y401415D01*
X1203970Y404029D01*
X1205971Y406030D01*
X1208585Y407113D01*
X1211415Y407113D01*
X1214029Y406030D01*
X1216030Y404029D01*
X1217113Y401415D01*
X1217113Y398585D01*
X1216030Y395971D01*
X1214029Y393970D01*
X1211415Y392887D01*
X1208585Y392887D01*
X1208232Y393034D01*
X1208230Y393034D01*
X1208229Y393035D01*
X1208096Y393069D01*
X1207956Y393105D01*
X1207955Y393105D01*
X1207953Y393105D01*
X1207812Y393101D01*
X1207672Y393097D01*
X1207671Y393096D01*
X1207669Y393096D01*
X1207535Y393053D01*
X1207401Y393010D01*
X1207400Y393009D01*
X1207399Y393009D01*
X1207386Y393000D01*
X1207165Y392852D01*
X1207145Y392828D01*
X1207125Y392814D01*
X1203346Y389035D01*
X1203346Y389034D01*
X1201263Y386951D01*
X951683Y386951D01*
X951597Y386939D01*
X951509Y386936D01*
X951457Y386919D01*
X951402Y386911D01*
X951322Y386876D01*
X951239Y386849D01*
X951200Y386821D01*
X951142Y386795D01*
X951029Y386699D01*
X950965Y386654D01*
X947186Y382875D01*
X947185Y382874D01*
X947184Y382873D01*
X947096Y382754D01*
X947015Y382648D01*
X947015Y382646D01*
X947014Y382645D01*
X946964Y382511D01*
X946914Y382382D01*
X946914Y382380D01*
X946914Y382379D01*
X946902Y382240D01*
X946891Y382099D01*
X946891Y382097D01*
X946891Y382096D01*
X946894Y382081D01*
X946947Y381820D01*
X946961Y381793D01*
X946966Y381768D01*
X947113Y381415D01*
X947113Y378585D01*
X946030Y375971D01*
X944029Y373970D01*
X941415Y372887D01*
X938585Y372887D01*
G37*
%LPD*%
%LPC*%
G36*
X974585Y47887D02*
X974585Y47887D01*
X971971Y48970D01*
X969970Y50971D01*
X968887Y53585D01*
X968887Y56415D01*
X969970Y59029D01*
X971971Y61030D01*
X974585Y62113D01*
X977415Y62113D01*
X980029Y61030D01*
X982030Y59029D01*
X982176Y58675D01*
X982177Y58674D01*
X982178Y58673D01*
X982252Y58548D01*
X982321Y58431D01*
X982322Y58430D01*
X982323Y58428D01*
X982427Y58330D01*
X982528Y58235D01*
X982529Y58235D01*
X982530Y58234D01*
X982656Y58169D01*
X982780Y58105D01*
X982782Y58105D01*
X982783Y58104D01*
X982798Y58102D01*
X983059Y58050D01*
X983090Y58053D01*
X983114Y58049D01*
X1227317Y58049D01*
X1227403Y58061D01*
X1227491Y58064D01*
X1227543Y58081D01*
X1227598Y58089D01*
X1227678Y58124D01*
X1227761Y58151D01*
X1227800Y58179D01*
X1227858Y58205D01*
X1227971Y58301D01*
X1228035Y58346D01*
X1232814Y63125D01*
X1232815Y63126D01*
X1232816Y63127D01*
X1232897Y63235D01*
X1232985Y63352D01*
X1232985Y63354D01*
X1232986Y63355D01*
X1233036Y63487D01*
X1233086Y63618D01*
X1233086Y63620D01*
X1233086Y63621D01*
X1233098Y63760D01*
X1233109Y63901D01*
X1233109Y63903D01*
X1233109Y63904D01*
X1233106Y63919D01*
X1233053Y64180D01*
X1233039Y64207D01*
X1233034Y64232D01*
X1232887Y64585D01*
X1232887Y67415D01*
X1233970Y70029D01*
X1235971Y72030D01*
X1238585Y73113D01*
X1241415Y73113D01*
X1244029Y72030D01*
X1246030Y70029D01*
X1247113Y67415D01*
X1247113Y64585D01*
X1246030Y61971D01*
X1244029Y59970D01*
X1241415Y58887D01*
X1238585Y58887D01*
X1238232Y59034D01*
X1238230Y59034D01*
X1238229Y59035D01*
X1238096Y59069D01*
X1237956Y59105D01*
X1237955Y59105D01*
X1237953Y59105D01*
X1237812Y59101D01*
X1237672Y59097D01*
X1237671Y59096D01*
X1237669Y59096D01*
X1237535Y59053D01*
X1237401Y59010D01*
X1237400Y59009D01*
X1237399Y59009D01*
X1237386Y59000D01*
X1237165Y58852D01*
X1237146Y58828D01*
X1237125Y58814D01*
X1232346Y54035D01*
X1232346Y54034D01*
X1230263Y51951D01*
X983114Y51951D01*
X983113Y51951D01*
X983111Y51951D01*
X982970Y51931D01*
X982833Y51911D01*
X982831Y51911D01*
X982830Y51911D01*
X982700Y51852D01*
X982573Y51795D01*
X982572Y51794D01*
X982571Y51793D01*
X982462Y51700D01*
X982356Y51612D01*
X982356Y51610D01*
X982354Y51609D01*
X982346Y51596D01*
X982199Y51375D01*
X982190Y51346D01*
X982176Y51325D01*
X982030Y50971D01*
X980029Y48970D01*
X977415Y47887D01*
X974585Y47887D01*
G37*
%LPD*%
%LPC*%
G36*
X438585Y232887D02*
X438585Y232887D01*
X435971Y233970D01*
X433970Y235971D01*
X432887Y238585D01*
X432887Y241415D01*
X433970Y244029D01*
X435971Y246030D01*
X436325Y246176D01*
X436326Y246177D01*
X436327Y246178D01*
X436446Y246248D01*
X436569Y246321D01*
X436570Y246322D01*
X436572Y246323D01*
X436670Y246427D01*
X436765Y246528D01*
X436765Y246529D01*
X436766Y246530D01*
X436829Y246653D01*
X436895Y246780D01*
X436895Y246782D01*
X436896Y246783D01*
X436898Y246798D01*
X436950Y247059D01*
X436947Y247090D01*
X436951Y247114D01*
X436951Y338317D01*
X436939Y338403D01*
X436936Y338491D01*
X436919Y338543D01*
X436911Y338598D01*
X436876Y338678D01*
X436849Y338761D01*
X436821Y338800D01*
X436795Y338858D01*
X436699Y338971D01*
X436654Y339035D01*
X379035Y396654D01*
X378965Y396706D01*
X378901Y396766D01*
X378851Y396792D01*
X378807Y396825D01*
X378726Y396856D01*
X378648Y396896D01*
X378600Y396904D01*
X378542Y396926D01*
X378394Y396938D01*
X378317Y396951D01*
X327114Y396951D01*
X327113Y396951D01*
X327111Y396951D01*
X326970Y396931D01*
X326833Y396911D01*
X326831Y396911D01*
X326830Y396911D01*
X326700Y396852D01*
X326573Y396795D01*
X326572Y396794D01*
X326571Y396793D01*
X326462Y396700D01*
X326356Y396612D01*
X326356Y396610D01*
X326354Y396609D01*
X326346Y396596D01*
X326199Y396375D01*
X326198Y396374D01*
X326198Y396373D01*
X326189Y396345D01*
X326176Y396325D01*
X326030Y395971D01*
X324029Y393970D01*
X321415Y392887D01*
X318585Y392887D01*
X315971Y393970D01*
X313970Y395971D01*
X312887Y398585D01*
X312887Y401415D01*
X313970Y404029D01*
X315971Y406030D01*
X318585Y407113D01*
X321415Y407113D01*
X324029Y406030D01*
X326030Y404029D01*
X326176Y403675D01*
X326177Y403674D01*
X326178Y403673D01*
X326248Y403554D01*
X326321Y403431D01*
X326322Y403430D01*
X326323Y403428D01*
X326427Y403330D01*
X326528Y403235D01*
X326529Y403235D01*
X326530Y403234D01*
X326656Y403169D01*
X326780Y403105D01*
X326782Y403105D01*
X326783Y403104D01*
X326798Y403102D01*
X327059Y403050D01*
X327090Y403053D01*
X327114Y403049D01*
X381263Y403049D01*
X443049Y341263D01*
X443049Y247114D01*
X443049Y247113D01*
X443049Y247111D01*
X443069Y246970D01*
X443089Y246833D01*
X443089Y246831D01*
X443089Y246830D01*
X443148Y246700D01*
X443205Y246573D01*
X443206Y246572D01*
X443207Y246571D01*
X443300Y246462D01*
X443388Y246356D01*
X443390Y246356D01*
X443391Y246354D01*
X443404Y246346D01*
X443625Y246199D01*
X443654Y246190D01*
X443675Y246176D01*
X444029Y246030D01*
X446030Y244029D01*
X447113Y241415D01*
X447113Y238585D01*
X446030Y235971D01*
X444029Y233970D01*
X441415Y232887D01*
X438585Y232887D01*
G37*
%LPD*%
%LPC*%
G36*
X481449Y186866D02*
X481449Y186866D01*
X481441Y186924D01*
X481443Y186982D01*
X481421Y187064D01*
X481409Y187147D01*
X481386Y187201D01*
X481371Y187257D01*
X481328Y187330D01*
X481293Y187407D01*
X481255Y187451D01*
X481226Y187502D01*
X481164Y187559D01*
X481127Y187603D01*
X481128Y187604D01*
X481192Y187659D01*
X481224Y187707D01*
X481264Y187750D01*
X481303Y187825D01*
X481350Y187895D01*
X481367Y187951D01*
X481394Y188003D01*
X481405Y188071D01*
X481435Y188166D01*
X481438Y188266D01*
X481449Y188334D01*
X481449Y197995D01*
X482168Y197881D01*
X483746Y197368D01*
X485225Y196615D01*
X486567Y195640D01*
X487740Y194467D01*
X488715Y193125D01*
X489047Y192474D01*
X489122Y192367D01*
X489196Y192257D01*
X489204Y192250D01*
X489210Y192241D01*
X489312Y192159D01*
X489413Y192074D01*
X489423Y192069D01*
X489432Y192063D01*
X489553Y192012D01*
X489673Y191958D01*
X489684Y191957D01*
X489694Y191953D01*
X489824Y191937D01*
X489955Y191919D01*
X489965Y191921D01*
X489976Y191920D01*
X490105Y191941D01*
X490236Y191960D01*
X490246Y191965D01*
X490256Y191966D01*
X490375Y192023D01*
X490495Y192077D01*
X490503Y192084D01*
X490513Y192089D01*
X490611Y192176D01*
X490711Y192262D01*
X490717Y192270D01*
X490725Y192278D01*
X490877Y192518D01*
X490882Y192534D01*
X490889Y192546D01*
X491195Y193283D01*
X494017Y196105D01*
X497704Y197633D01*
X501696Y197633D01*
X505383Y196105D01*
X508205Y193283D01*
X509733Y189596D01*
X509733Y185604D01*
X508205Y181917D01*
X505383Y179095D01*
X501696Y177567D01*
X497704Y177567D01*
X494017Y179095D01*
X491195Y181917D01*
X490889Y182654D01*
X490822Y182767D01*
X490758Y182882D01*
X490750Y182889D01*
X490745Y182899D01*
X490649Y182989D01*
X490556Y183081D01*
X490546Y183086D01*
X490538Y183094D01*
X490422Y183154D01*
X490306Y183217D01*
X490295Y183219D01*
X490286Y183224D01*
X490157Y183249D01*
X490028Y183278D01*
X490017Y183277D01*
X490007Y183279D01*
X489875Y183268D01*
X489744Y183259D01*
X489734Y183256D01*
X489723Y183255D01*
X489600Y183207D01*
X489477Y183163D01*
X489468Y183156D01*
X489458Y183153D01*
X489353Y183073D01*
X489247Y182996D01*
X489241Y182988D01*
X489231Y182981D01*
X489061Y182753D01*
X489055Y182738D01*
X489047Y182726D01*
X488715Y182075D01*
X487740Y180733D01*
X486567Y179560D01*
X485225Y178585D01*
X483746Y177832D01*
X482168Y177319D01*
X481449Y177205D01*
X481449Y186866D01*
G37*
%LPD*%
%LPC*%
G36*
X477232Y177319D02*
X477232Y177319D01*
X475654Y177832D01*
X474175Y178585D01*
X472833Y179560D01*
X471660Y180733D01*
X470685Y182075D01*
X470353Y182726D01*
X470278Y182833D01*
X470204Y182943D01*
X470196Y182950D01*
X470190Y182959D01*
X470088Y183041D01*
X469987Y183126D01*
X469977Y183131D01*
X469968Y183137D01*
X469847Y183188D01*
X469727Y183242D01*
X469716Y183243D01*
X469706Y183247D01*
X469576Y183263D01*
X469445Y183281D01*
X469435Y183279D01*
X469424Y183280D01*
X469295Y183259D01*
X469164Y183240D01*
X469154Y183235D01*
X469144Y183234D01*
X469025Y183177D01*
X468905Y183123D01*
X468897Y183116D01*
X468887Y183111D01*
X468789Y183024D01*
X468689Y182938D01*
X468683Y182930D01*
X468675Y182922D01*
X468523Y182682D01*
X468518Y182666D01*
X468511Y182654D01*
X468205Y181917D01*
X465383Y179095D01*
X461696Y177567D01*
X457704Y177567D01*
X454017Y179095D01*
X451195Y181917D01*
X449667Y185604D01*
X449667Y189596D01*
X451195Y193283D01*
X454017Y196105D01*
X457704Y197633D01*
X461696Y197633D01*
X465383Y196105D01*
X468205Y193283D01*
X468511Y192546D01*
X468578Y192433D01*
X468642Y192318D01*
X468650Y192311D01*
X468655Y192301D01*
X468751Y192211D01*
X468844Y192119D01*
X468854Y192114D01*
X468862Y192106D01*
X468978Y192046D01*
X469094Y191983D01*
X469105Y191981D01*
X469114Y191976D01*
X469243Y191951D01*
X469372Y191922D01*
X469383Y191923D01*
X469393Y191921D01*
X469525Y191932D01*
X469656Y191941D01*
X469666Y191944D01*
X469677Y191945D01*
X469800Y191993D01*
X469923Y192037D01*
X469932Y192044D01*
X469942Y192047D01*
X470047Y192127D01*
X470153Y192204D01*
X470159Y192212D01*
X470169Y192219D01*
X470339Y192447D01*
X470345Y192462D01*
X470353Y192474D01*
X470685Y193125D01*
X471660Y194467D01*
X472833Y195640D01*
X474175Y196615D01*
X475654Y197368D01*
X477232Y197881D01*
X477951Y197995D01*
X477951Y188334D01*
X477959Y188276D01*
X477957Y188218D01*
X477979Y188136D01*
X477991Y188053D01*
X478014Y187999D01*
X478029Y187943D01*
X478072Y187870D01*
X478107Y187793D01*
X478145Y187749D01*
X478174Y187698D01*
X478236Y187641D01*
X478273Y187597D01*
X478272Y187596D01*
X478208Y187541D01*
X478176Y187493D01*
X478136Y187450D01*
X478097Y187375D01*
X478050Y187305D01*
X478033Y187249D01*
X478006Y187197D01*
X477995Y187129D01*
X477965Y187034D01*
X477962Y186934D01*
X477951Y186866D01*
X477951Y177205D01*
X477232Y177319D01*
G37*
%LPD*%
%LPC*%
G36*
X898601Y422967D02*
X898601Y422967D01*
X896016Y424038D01*
X894038Y426016D01*
X892967Y428601D01*
X892967Y431399D01*
X894038Y433984D01*
X896016Y435962D01*
X898601Y437033D01*
X901399Y437033D01*
X903984Y435962D01*
X905962Y433984D01*
X907033Y431399D01*
X907033Y428601D01*
X905962Y426016D01*
X903984Y424038D01*
X901399Y422967D01*
X898601Y422967D01*
G37*
%LPD*%
%LPC*%
G36*
X398601Y422967D02*
X398601Y422967D01*
X396016Y424038D01*
X394038Y426016D01*
X392967Y428601D01*
X392967Y431399D01*
X394038Y433984D01*
X396016Y435962D01*
X398601Y437033D01*
X401399Y437033D01*
X403984Y435962D01*
X405962Y433984D01*
X407033Y431399D01*
X407033Y428601D01*
X405962Y426016D01*
X403984Y424038D01*
X401399Y422967D01*
X398601Y422967D01*
G37*
%LPD*%
%LPC*%
G36*
X468601Y422967D02*
X468601Y422967D01*
X466016Y424038D01*
X464038Y426016D01*
X462967Y428601D01*
X462967Y431399D01*
X464038Y433984D01*
X466016Y435962D01*
X468601Y437033D01*
X471399Y437033D01*
X473984Y435962D01*
X475962Y433984D01*
X477033Y431399D01*
X477033Y428601D01*
X475962Y426016D01*
X473984Y424038D01*
X471399Y422967D01*
X468601Y422967D01*
G37*
%LPD*%
%LPC*%
G36*
X828601Y422967D02*
X828601Y422967D01*
X826016Y424038D01*
X824038Y426016D01*
X822967Y428601D01*
X822967Y431399D01*
X824038Y433984D01*
X826016Y435962D01*
X828601Y437033D01*
X831399Y437033D01*
X833984Y435962D01*
X835962Y433984D01*
X837033Y431399D01*
X837033Y428601D01*
X835962Y426016D01*
X833984Y424038D01*
X831399Y422967D01*
X828601Y422967D01*
G37*
%LPD*%
%LPC*%
G36*
X24601Y326967D02*
X24601Y326967D01*
X22016Y328038D01*
X20038Y330016D01*
X18967Y332601D01*
X18967Y335399D01*
X20038Y337984D01*
X22016Y339962D01*
X24601Y341033D01*
X27399Y341033D01*
X29984Y339962D01*
X31962Y337984D01*
X33033Y335399D01*
X33033Y332601D01*
X31962Y330016D01*
X29984Y328038D01*
X27399Y326967D01*
X24601Y326967D01*
G37*
%LPD*%
%LPC*%
G36*
X1268601Y102967D02*
X1268601Y102967D01*
X1266016Y104038D01*
X1264038Y106016D01*
X1262967Y108601D01*
X1262967Y111399D01*
X1264038Y113984D01*
X1266016Y115962D01*
X1268601Y117033D01*
X1271399Y117033D01*
X1273984Y115962D01*
X1275962Y113984D01*
X1277033Y111399D01*
X1277033Y108601D01*
X1275962Y106016D01*
X1273984Y104038D01*
X1271399Y102967D01*
X1268601Y102967D01*
G37*
%LPD*%
%LPC*%
G36*
X898601Y12967D02*
X898601Y12967D01*
X896016Y14038D01*
X894038Y16016D01*
X892967Y18601D01*
X892967Y21399D01*
X894038Y23984D01*
X896016Y25962D01*
X898601Y27033D01*
X901399Y27033D01*
X903984Y25962D01*
X905962Y23984D01*
X907033Y21399D01*
X907033Y18601D01*
X905962Y16016D01*
X903984Y14038D01*
X901399Y12967D01*
X898601Y12967D01*
G37*
%LPD*%
%LPC*%
G36*
X828601Y12967D02*
X828601Y12967D01*
X826016Y14038D01*
X824038Y16016D01*
X822967Y18601D01*
X822967Y21399D01*
X824038Y23984D01*
X826016Y25962D01*
X828601Y27033D01*
X831399Y27033D01*
X833984Y25962D01*
X835962Y23984D01*
X837033Y21399D01*
X837033Y18601D01*
X835962Y16016D01*
X833984Y14038D01*
X831399Y12967D01*
X828601Y12967D01*
G37*
%LPD*%
%LPC*%
G36*
X468601Y12967D02*
X468601Y12967D01*
X466016Y14038D01*
X464038Y16016D01*
X462967Y18601D01*
X462967Y21399D01*
X464038Y23984D01*
X466016Y25962D01*
X468601Y27033D01*
X471399Y27033D01*
X473984Y25962D01*
X475962Y23984D01*
X477033Y21399D01*
X477033Y18601D01*
X475962Y16016D01*
X473984Y14038D01*
X471399Y12967D01*
X468601Y12967D01*
G37*
%LPD*%
%LPC*%
G36*
X398601Y12967D02*
X398601Y12967D01*
X396016Y14038D01*
X394038Y16016D01*
X392967Y18601D01*
X392967Y21399D01*
X394038Y23984D01*
X396016Y25962D01*
X398601Y27033D01*
X401399Y27033D01*
X403984Y25962D01*
X405962Y23984D01*
X407033Y21399D01*
X407033Y18601D01*
X405962Y16016D01*
X403984Y14038D01*
X401399Y12967D01*
X398601Y12967D01*
G37*
%LPD*%
%LPC*%
G36*
X468031Y277031D02*
X468031Y277031D01*
X468031Y287023D01*
X468855Y286893D01*
X470680Y286299D01*
X472390Y285428D01*
X473943Y284300D01*
X475300Y282943D01*
X476428Y281390D01*
X477299Y279680D01*
X477893Y277855D01*
X478023Y277031D01*
X468031Y277031D01*
G37*
%LPD*%
%LPC*%
G36*
X453977Y277031D02*
X453977Y277031D01*
X454107Y277855D01*
X454701Y279680D01*
X455572Y281390D01*
X456700Y282943D01*
X458057Y284300D01*
X459610Y285428D01*
X461320Y286299D01*
X463145Y286893D01*
X463969Y287023D01*
X463969Y277031D01*
X453977Y277031D01*
G37*
%LPD*%
%LPC*%
G36*
X468031Y272969D02*
X468031Y272969D01*
X478023Y272969D01*
X477893Y272145D01*
X477299Y270320D01*
X476428Y268610D01*
X475300Y267057D01*
X473943Y265700D01*
X472390Y264572D01*
X470680Y263701D01*
X468855Y263107D01*
X468031Y262977D01*
X468031Y272969D01*
G37*
%LPD*%
%LPC*%
G36*
X463145Y263107D02*
X463145Y263107D01*
X461320Y263701D01*
X459610Y264572D01*
X458057Y265700D01*
X456700Y267057D01*
X455572Y268610D01*
X454701Y270320D01*
X454107Y272145D01*
X453977Y272969D01*
X463969Y272969D01*
X463969Y262977D01*
X463145Y263107D01*
G37*
%LPD*%
%LPC*%
G36*
X465999Y274999D02*
X465999Y274999D01*
X465999Y275001D01*
X466001Y275001D01*
X466001Y274999D01*
X465999Y274999D01*
G37*
%LPD*%
D10*
X499700Y187600D03*
X479700Y187600D03*
X459700Y187600D03*
D11*
X466000Y275000D03*
D12*
X516000Y275000D03*
D13*
X440000Y240000D03*
D14*
X440000Y340000D01*
X380000Y400000D01*
X320000Y400000D01*
D13*
X320000Y400000D03*
X94000Y415000D03*
D14*
X94000Y386000D01*
X100000Y380000D01*
X340000Y380000D01*
X360000Y360000D01*
D13*
X360000Y360000D03*
X40000Y363000D03*
D14*
X40000Y339000D01*
X54000Y325000D01*
X410000Y325000D01*
D13*
X410000Y325000D03*
X-10000Y280000D03*
D14*
X-4000Y274000D01*
D13*
X420000Y274000D03*
D14*
X-4000Y274000D01*
D13*
X-10000Y230000D03*
D14*
X0Y220000D01*
X390000Y220000D02*
X401000Y209000D01*
X401000Y197122D01*
D13*
X401000Y197122D03*
D14*
X390000Y220000D02*
X0Y220000D01*
D13*
X-10000Y180000D03*
D14*
X0Y170000D01*
X420000Y170000D01*
D13*
X420000Y170000D03*
X-10000Y160000D03*
D14*
X-6000Y164000D01*
X26000Y164000D02*
X40000Y150000D01*
X40000Y120000D01*
X45000Y115000D01*
X342000Y115000D02*
X369000Y88000D01*
D13*
X369000Y88000D03*
D14*
X26000Y164000D02*
X-6000Y164000D01*
X45000Y115000D02*
X342000Y115000D01*
D13*
X40000Y100000D03*
D14*
X40000Y80000D01*
X56000Y64000D01*
X306000Y64000D02*
X330000Y40000D01*
D13*
X330000Y40000D03*
D14*
X306000Y64000D02*
X56000Y64000D01*
D13*
X90000Y50000D03*
D14*
X97000Y57000D01*
X293000Y57000D02*
X330000Y20000D01*
X350000Y20000D01*
X440000Y160000D02*
X450000Y170000D01*
X515000Y170000D01*
X515000Y235000D01*
X490000Y260000D01*
X490000Y340000D01*
X460000Y340000D01*
X440000Y360000D01*
X440000Y370000D01*
D13*
X440000Y370000D03*
D14*
X293000Y57000D02*
X97000Y57000D01*
X350000Y20000D02*
X440000Y110000D01*
X440000Y160000D01*
D13*
X410000Y210000D03*
D14*
X410000Y260000D01*
D13*
X410000Y260000D03*
D14*
X516000Y275000D02*
X530000Y261000D01*
X530000Y140000D02*
X520000Y130000D01*
X460000Y130000D01*
X450000Y120000D01*
X450000Y50000D01*
D13*
X450000Y50000D03*
D14*
X530000Y140000D02*
X530000Y261000D01*
X516000Y275000D02*
X531000Y290000D01*
D13*
X870000Y290000D03*
D14*
X531000Y290000D01*
D13*
X340000Y60000D03*
D14*
X380000Y60000D01*
D13*
X410000Y100000D03*
D14*
X410000Y90000D01*
X380000Y60000D01*
D13*
X1210000Y400000D03*
D14*
X1200000Y390000D01*
X950000Y390000D02*
X940000Y380000D01*
D13*
X940000Y380000D03*
D14*
X950000Y390000D02*
X1200000Y390000D01*
D13*
X1258000Y343000D03*
D14*
X1245000Y330000D01*
X900000Y330000D01*
X890000Y320000D01*
D13*
X890000Y320000D03*
X1310000Y280000D03*
D14*
X1298000Y268000D01*
X898000Y268000D02*
X890000Y260000D01*
D13*
X890000Y260000D03*
D14*
X898000Y268000D02*
X1298000Y268000D01*
D13*
X1310000Y234000D03*
D14*
X1292000Y216000D01*
X896000Y216000D02*
X890000Y210000D01*
D13*
X890000Y210000D03*
D14*
X896000Y216000D02*
X1292000Y216000D01*
D13*
X1310000Y182000D03*
D14*
X1291000Y163000D01*
X893000Y163000D02*
X890000Y160000D01*
D13*
X890000Y160000D03*
D14*
X893000Y163000D02*
X1291000Y163000D01*
D13*
X1288000Y124000D03*
D14*
X944000Y124000D01*
X930000Y110000D01*
D13*
X930000Y110000D03*
X1240000Y66000D03*
D14*
X1229000Y55000D01*
X976000Y55000D01*
D13*
X976000Y55000D03*
M02*
