G04 EAGLE Gerber RS-274X export*
G75*
%MOMM*%
%FSLAX34Y34*%
%LPD*%
%IN*%
%IPPOS*%
%AMOC8*
5,1,8,0,0,1.08239X$1,22.5*%
G01*
%ADD10C,0.254000*%


D10*
X-30000Y225000D02*
X-29144Y205390D01*
X-26582Y185929D01*
X-22333Y166766D01*
X-16431Y148045D01*
X-8919Y129911D01*
X144Y112500D01*
X10691Y95945D01*
X22640Y80373D01*
X35901Y65901D01*
X50373Y52640D01*
X65945Y40691D01*
X82500Y30144D01*
X99911Y21081D01*
X118045Y13569D01*
X136766Y7667D01*
X155929Y3418D01*
X175390Y856D01*
X195000Y0D01*
X1105000Y0D01*
X1124610Y856D01*
X1144071Y3418D01*
X1163234Y7667D01*
X1181955Y13569D01*
X1200089Y21081D01*
X1217500Y30144D01*
X1234055Y40691D01*
X1249627Y52640D01*
X1264099Y65901D01*
X1277360Y80373D01*
X1289309Y95945D01*
X1299856Y112500D01*
X1308919Y129911D01*
X1316431Y148045D01*
X1322333Y166766D01*
X1326582Y185929D01*
X1329144Y205390D01*
X1330000Y225000D01*
X1329144Y244610D01*
X1326582Y264071D01*
X1322333Y283234D01*
X1316431Y301955D01*
X1308919Y320089D01*
X1299856Y337500D01*
X1289309Y354055D01*
X1277360Y369627D01*
X1264099Y384099D01*
X1249627Y397360D01*
X1234055Y409309D01*
X1217500Y419856D01*
X1200089Y428919D01*
X1181955Y436431D01*
X1163234Y442333D01*
X1144071Y446582D01*
X1124610Y449144D01*
X1105000Y450000D01*
X195000Y450000D01*
X175390Y449144D01*
X155929Y446582D01*
X136766Y442333D01*
X118045Y436431D01*
X99911Y428919D01*
X82500Y419856D01*
X65945Y409309D01*
X50373Y397360D01*
X35901Y384099D01*
X22640Y369627D01*
X10691Y354055D01*
X144Y337500D01*
X-8919Y320089D01*
X-16431Y301955D01*
X-22333Y283234D01*
X-26582Y264071D01*
X-29144Y244610D01*
X-30000Y225000D01*
X31000Y333719D02*
X30937Y333161D01*
X30812Y332614D01*
X30627Y332084D01*
X30383Y331578D01*
X30084Y331102D01*
X29734Y330663D01*
X29337Y330266D01*
X28898Y329916D01*
X28422Y329617D01*
X27916Y329373D01*
X27386Y329188D01*
X26839Y329063D01*
X26281Y329000D01*
X25719Y329000D01*
X25161Y329063D01*
X24614Y329188D01*
X24084Y329373D01*
X23578Y329617D01*
X23102Y329916D01*
X22663Y330266D01*
X22266Y330663D01*
X21916Y331102D01*
X21617Y331578D01*
X21373Y332084D01*
X21188Y332614D01*
X21063Y333161D01*
X21000Y333719D01*
X21000Y334281D01*
X21063Y334839D01*
X21188Y335386D01*
X21373Y335916D01*
X21617Y336422D01*
X21916Y336898D01*
X22266Y337337D01*
X22663Y337734D01*
X23102Y338084D01*
X23578Y338383D01*
X24084Y338627D01*
X24614Y338812D01*
X25161Y338937D01*
X25719Y339000D01*
X26281Y339000D01*
X26839Y338937D01*
X27386Y338812D01*
X27916Y338627D01*
X28422Y338383D01*
X28898Y338084D01*
X29337Y337734D01*
X29734Y337337D01*
X30084Y336898D01*
X30383Y336422D01*
X30627Y335916D01*
X30812Y335386D01*
X30937Y334839D01*
X31000Y334281D01*
X31000Y333719D01*
X30000Y104719D02*
X29937Y104161D01*
X29812Y103614D01*
X29627Y103084D01*
X29383Y102578D01*
X29084Y102102D01*
X28734Y101663D01*
X28337Y101266D01*
X27898Y100916D01*
X27422Y100617D01*
X26916Y100373D01*
X26386Y100188D01*
X25839Y100063D01*
X25281Y100000D01*
X24719Y100000D01*
X24161Y100063D01*
X23614Y100188D01*
X23084Y100373D01*
X22578Y100617D01*
X22102Y100916D01*
X21663Y101266D01*
X21266Y101663D01*
X20916Y102102D01*
X20617Y102578D01*
X20373Y103084D01*
X20188Y103614D01*
X20063Y104161D01*
X20000Y104719D01*
X20000Y105281D01*
X20063Y105839D01*
X20188Y106386D01*
X20373Y106916D01*
X20617Y107422D01*
X20916Y107898D01*
X21266Y108337D01*
X21663Y108734D01*
X22102Y109084D01*
X22578Y109383D01*
X23084Y109627D01*
X23614Y109812D01*
X24161Y109937D01*
X24719Y110000D01*
X25281Y110000D01*
X25839Y109937D01*
X26386Y109812D01*
X26916Y109627D01*
X27422Y109383D01*
X27898Y109084D01*
X28337Y108734D01*
X28734Y108337D01*
X29084Y107898D01*
X29383Y107422D01*
X29627Y106916D01*
X29812Y106386D01*
X29937Y105839D01*
X30000Y105281D01*
X30000Y104719D01*
X405000Y429719D02*
X404937Y429161D01*
X404812Y428614D01*
X404627Y428084D01*
X404383Y427578D01*
X404084Y427102D01*
X403734Y426663D01*
X403337Y426266D01*
X402898Y425916D01*
X402422Y425617D01*
X401916Y425373D01*
X401386Y425188D01*
X400839Y425063D01*
X400281Y425000D01*
X399719Y425000D01*
X399161Y425063D01*
X398614Y425188D01*
X398084Y425373D01*
X397578Y425617D01*
X397102Y425916D01*
X396663Y426266D01*
X396266Y426663D01*
X395916Y427102D01*
X395617Y427578D01*
X395373Y428084D01*
X395188Y428614D01*
X395063Y429161D01*
X395000Y429719D01*
X395000Y430281D01*
X395063Y430839D01*
X395188Y431386D01*
X395373Y431916D01*
X395617Y432422D01*
X395916Y432898D01*
X396266Y433337D01*
X396663Y433734D01*
X397102Y434084D01*
X397578Y434383D01*
X398084Y434627D01*
X398614Y434812D01*
X399161Y434937D01*
X399719Y435000D01*
X400281Y435000D01*
X400839Y434937D01*
X401386Y434812D01*
X401916Y434627D01*
X402422Y434383D01*
X402898Y434084D01*
X403337Y433734D01*
X403734Y433337D01*
X404084Y432898D01*
X404383Y432422D01*
X404627Y431916D01*
X404812Y431386D01*
X404937Y430839D01*
X405000Y430281D01*
X405000Y429719D01*
X405000Y19719D02*
X404937Y19161D01*
X404812Y18614D01*
X404627Y18084D01*
X404383Y17578D01*
X404084Y17102D01*
X403734Y16663D01*
X403337Y16266D01*
X402898Y15916D01*
X402422Y15617D01*
X401916Y15373D01*
X401386Y15188D01*
X400839Y15063D01*
X400281Y15000D01*
X399719Y15000D01*
X399161Y15063D01*
X398614Y15188D01*
X398084Y15373D01*
X397578Y15617D01*
X397102Y15916D01*
X396663Y16266D01*
X396266Y16663D01*
X395916Y17102D01*
X395617Y17578D01*
X395373Y18084D01*
X395188Y18614D01*
X395063Y19161D01*
X395000Y19719D01*
X395000Y20281D01*
X395063Y20839D01*
X395188Y21386D01*
X395373Y21916D01*
X395617Y22422D01*
X395916Y22898D01*
X396266Y23337D01*
X396663Y23734D01*
X397102Y24084D01*
X397578Y24383D01*
X398084Y24627D01*
X398614Y24812D01*
X399161Y24937D01*
X399719Y25000D01*
X400281Y25000D01*
X400839Y24937D01*
X401386Y24812D01*
X401916Y24627D01*
X402422Y24383D01*
X402898Y24084D01*
X403337Y23734D01*
X403734Y23337D01*
X404084Y22898D01*
X404383Y22422D01*
X404627Y21916D01*
X404812Y21386D01*
X404937Y20839D01*
X405000Y20281D01*
X405000Y19719D01*
X475000Y429719D02*
X474937Y429161D01*
X474812Y428614D01*
X474627Y428084D01*
X474383Y427578D01*
X474084Y427102D01*
X473734Y426663D01*
X473337Y426266D01*
X472898Y425916D01*
X472422Y425617D01*
X471916Y425373D01*
X471386Y425188D01*
X470839Y425063D01*
X470281Y425000D01*
X469719Y425000D01*
X469161Y425063D01*
X468614Y425188D01*
X468084Y425373D01*
X467578Y425617D01*
X467102Y425916D01*
X466663Y426266D01*
X466266Y426663D01*
X465916Y427102D01*
X465617Y427578D01*
X465373Y428084D01*
X465188Y428614D01*
X465063Y429161D01*
X465000Y429719D01*
X465000Y430281D01*
X465063Y430839D01*
X465188Y431386D01*
X465373Y431916D01*
X465617Y432422D01*
X465916Y432898D01*
X466266Y433337D01*
X466663Y433734D01*
X467102Y434084D01*
X467578Y434383D01*
X468084Y434627D01*
X468614Y434812D01*
X469161Y434937D01*
X469719Y435000D01*
X470281Y435000D01*
X470839Y434937D01*
X471386Y434812D01*
X471916Y434627D01*
X472422Y434383D01*
X472898Y434084D01*
X473337Y433734D01*
X473734Y433337D01*
X474084Y432898D01*
X474383Y432422D01*
X474627Y431916D01*
X474812Y431386D01*
X474937Y430839D01*
X475000Y430281D01*
X475000Y429719D01*
X475000Y19719D02*
X474937Y19161D01*
X474812Y18614D01*
X474627Y18084D01*
X474383Y17578D01*
X474084Y17102D01*
X473734Y16663D01*
X473337Y16266D01*
X472898Y15916D01*
X472422Y15617D01*
X471916Y15373D01*
X471386Y15188D01*
X470839Y15063D01*
X470281Y15000D01*
X469719Y15000D01*
X469161Y15063D01*
X468614Y15188D01*
X468084Y15373D01*
X467578Y15617D01*
X467102Y15916D01*
X466663Y16266D01*
X466266Y16663D01*
X465916Y17102D01*
X465617Y17578D01*
X465373Y18084D01*
X465188Y18614D01*
X465063Y19161D01*
X465000Y19719D01*
X465000Y20281D01*
X465063Y20839D01*
X465188Y21386D01*
X465373Y21916D01*
X465617Y22422D01*
X465916Y22898D01*
X466266Y23337D01*
X466663Y23734D01*
X467102Y24084D01*
X467578Y24383D01*
X468084Y24627D01*
X468614Y24812D01*
X469161Y24937D01*
X469719Y25000D01*
X470281Y25000D01*
X470839Y24937D01*
X471386Y24812D01*
X471916Y24627D01*
X472422Y24383D01*
X472898Y24084D01*
X473337Y23734D01*
X473734Y23337D01*
X474084Y22898D01*
X474383Y22422D01*
X474627Y21916D01*
X474812Y21386D01*
X474937Y20839D01*
X475000Y20281D01*
X475000Y19719D01*
X835000Y19719D02*
X834937Y19161D01*
X834812Y18614D01*
X834627Y18084D01*
X834383Y17578D01*
X834084Y17102D01*
X833734Y16663D01*
X833337Y16266D01*
X832898Y15916D01*
X832422Y15617D01*
X831916Y15373D01*
X831386Y15188D01*
X830839Y15063D01*
X830281Y15000D01*
X829719Y15000D01*
X829161Y15063D01*
X828614Y15188D01*
X828084Y15373D01*
X827578Y15617D01*
X827102Y15916D01*
X826663Y16266D01*
X826266Y16663D01*
X825916Y17102D01*
X825617Y17578D01*
X825373Y18084D01*
X825188Y18614D01*
X825063Y19161D01*
X825000Y19719D01*
X825000Y20281D01*
X825063Y20839D01*
X825188Y21386D01*
X825373Y21916D01*
X825617Y22422D01*
X825916Y22898D01*
X826266Y23337D01*
X826663Y23734D01*
X827102Y24084D01*
X827578Y24383D01*
X828084Y24627D01*
X828614Y24812D01*
X829161Y24937D01*
X829719Y25000D01*
X830281Y25000D01*
X830839Y24937D01*
X831386Y24812D01*
X831916Y24627D01*
X832422Y24383D01*
X832898Y24084D01*
X833337Y23734D01*
X833734Y23337D01*
X834084Y22898D01*
X834383Y22422D01*
X834627Y21916D01*
X834812Y21386D01*
X834937Y20839D01*
X835000Y20281D01*
X835000Y19719D01*
X835000Y429719D02*
X834937Y429161D01*
X834812Y428614D01*
X834627Y428084D01*
X834383Y427578D01*
X834084Y427102D01*
X833734Y426663D01*
X833337Y426266D01*
X832898Y425916D01*
X832422Y425617D01*
X831916Y425373D01*
X831386Y425188D01*
X830839Y425063D01*
X830281Y425000D01*
X829719Y425000D01*
X829161Y425063D01*
X828614Y425188D01*
X828084Y425373D01*
X827578Y425617D01*
X827102Y425916D01*
X826663Y426266D01*
X826266Y426663D01*
X825916Y427102D01*
X825617Y427578D01*
X825373Y428084D01*
X825188Y428614D01*
X825063Y429161D01*
X825000Y429719D01*
X825000Y430281D01*
X825063Y430839D01*
X825188Y431386D01*
X825373Y431916D01*
X825617Y432422D01*
X825916Y432898D01*
X826266Y433337D01*
X826663Y433734D01*
X827102Y434084D01*
X827578Y434383D01*
X828084Y434627D01*
X828614Y434812D01*
X829161Y434937D01*
X829719Y435000D01*
X830281Y435000D01*
X830839Y434937D01*
X831386Y434812D01*
X831916Y434627D01*
X832422Y434383D01*
X832898Y434084D01*
X833337Y433734D01*
X833734Y433337D01*
X834084Y432898D01*
X834383Y432422D01*
X834627Y431916D01*
X834812Y431386D01*
X834937Y430839D01*
X835000Y430281D01*
X835000Y429719D01*
X905000Y429719D02*
X904937Y429161D01*
X904812Y428614D01*
X904627Y428084D01*
X904383Y427578D01*
X904084Y427102D01*
X903734Y426663D01*
X903337Y426266D01*
X902898Y425916D01*
X902422Y425617D01*
X901916Y425373D01*
X901386Y425188D01*
X900839Y425063D01*
X900281Y425000D01*
X899719Y425000D01*
X899161Y425063D01*
X898614Y425188D01*
X898084Y425373D01*
X897578Y425617D01*
X897102Y425916D01*
X896663Y426266D01*
X896266Y426663D01*
X895916Y427102D01*
X895617Y427578D01*
X895373Y428084D01*
X895188Y428614D01*
X895063Y429161D01*
X895000Y429719D01*
X895000Y430281D01*
X895063Y430839D01*
X895188Y431386D01*
X895373Y431916D01*
X895617Y432422D01*
X895916Y432898D01*
X896266Y433337D01*
X896663Y433734D01*
X897102Y434084D01*
X897578Y434383D01*
X898084Y434627D01*
X898614Y434812D01*
X899161Y434937D01*
X899719Y435000D01*
X900281Y435000D01*
X900839Y434937D01*
X901386Y434812D01*
X901916Y434627D01*
X902422Y434383D01*
X902898Y434084D01*
X903337Y433734D01*
X903734Y433337D01*
X904084Y432898D01*
X904383Y432422D01*
X904627Y431916D01*
X904812Y431386D01*
X904937Y430839D01*
X905000Y430281D01*
X905000Y429719D01*
X905000Y19719D02*
X904937Y19161D01*
X904812Y18614D01*
X904627Y18084D01*
X904383Y17578D01*
X904084Y17102D01*
X903734Y16663D01*
X903337Y16266D01*
X902898Y15916D01*
X902422Y15617D01*
X901916Y15373D01*
X901386Y15188D01*
X900839Y15063D01*
X900281Y15000D01*
X899719Y15000D01*
X899161Y15063D01*
X898614Y15188D01*
X898084Y15373D01*
X897578Y15617D01*
X897102Y15916D01*
X896663Y16266D01*
X896266Y16663D01*
X895916Y17102D01*
X895617Y17578D01*
X895373Y18084D01*
X895188Y18614D01*
X895063Y19161D01*
X895000Y19719D01*
X895000Y20281D01*
X895063Y20839D01*
X895188Y21386D01*
X895373Y21916D01*
X895617Y22422D01*
X895916Y22898D01*
X896266Y23337D01*
X896663Y23734D01*
X897102Y24084D01*
X897578Y24383D01*
X898084Y24627D01*
X898614Y24812D01*
X899161Y24937D01*
X899719Y25000D01*
X900281Y25000D01*
X900839Y24937D01*
X901386Y24812D01*
X901916Y24627D01*
X902422Y24383D01*
X902898Y24084D01*
X903337Y23734D01*
X903734Y23337D01*
X904084Y22898D01*
X904383Y22422D01*
X904627Y21916D01*
X904812Y21386D01*
X904937Y20839D01*
X905000Y20281D01*
X905000Y19719D01*
X1275000Y109719D02*
X1274937Y109161D01*
X1274812Y108614D01*
X1274627Y108084D01*
X1274383Y107578D01*
X1274084Y107102D01*
X1273734Y106663D01*
X1273337Y106266D01*
X1272898Y105916D01*
X1272422Y105617D01*
X1271916Y105373D01*
X1271386Y105188D01*
X1270839Y105063D01*
X1270281Y105000D01*
X1269719Y105000D01*
X1269161Y105063D01*
X1268614Y105188D01*
X1268084Y105373D01*
X1267578Y105617D01*
X1267102Y105916D01*
X1266663Y106266D01*
X1266266Y106663D01*
X1265916Y107102D01*
X1265617Y107578D01*
X1265373Y108084D01*
X1265188Y108614D01*
X1265063Y109161D01*
X1265000Y109719D01*
X1265000Y110281D01*
X1265063Y110839D01*
X1265188Y111386D01*
X1265373Y111916D01*
X1265617Y112422D01*
X1265916Y112898D01*
X1266266Y113337D01*
X1266663Y113734D01*
X1267102Y114084D01*
X1267578Y114383D01*
X1268084Y114627D01*
X1268614Y114812D01*
X1269161Y114937D01*
X1269719Y115000D01*
X1270281Y115000D01*
X1270839Y114937D01*
X1271386Y114812D01*
X1271916Y114627D01*
X1272422Y114383D01*
X1272898Y114084D01*
X1273337Y113734D01*
X1273734Y113337D01*
X1274084Y112898D01*
X1274383Y112422D01*
X1274627Y111916D01*
X1274812Y111386D01*
X1274937Y110839D01*
X1275000Y110281D01*
X1275000Y109719D01*
X1275000Y359719D02*
X1274937Y359161D01*
X1274812Y358614D01*
X1274627Y358084D01*
X1274383Y357578D01*
X1274084Y357102D01*
X1273734Y356663D01*
X1273337Y356266D01*
X1272898Y355916D01*
X1272422Y355617D01*
X1271916Y355373D01*
X1271386Y355188D01*
X1270839Y355063D01*
X1270281Y355000D01*
X1269719Y355000D01*
X1269161Y355063D01*
X1268614Y355188D01*
X1268084Y355373D01*
X1267578Y355617D01*
X1267102Y355916D01*
X1266663Y356266D01*
X1266266Y356663D01*
X1265916Y357102D01*
X1265617Y357578D01*
X1265373Y358084D01*
X1265188Y358614D01*
X1265063Y359161D01*
X1265000Y359719D01*
X1265000Y360281D01*
X1265063Y360839D01*
X1265188Y361386D01*
X1265373Y361916D01*
X1265617Y362422D01*
X1265916Y362898D01*
X1266266Y363337D01*
X1266663Y363734D01*
X1267102Y364084D01*
X1267578Y364383D01*
X1268084Y364627D01*
X1268614Y364812D01*
X1269161Y364937D01*
X1269719Y365000D01*
X1270281Y365000D01*
X1270839Y364937D01*
X1271386Y364812D01*
X1271916Y364627D01*
X1272422Y364383D01*
X1272898Y364084D01*
X1273337Y363734D01*
X1273734Y363337D01*
X1274084Y362898D01*
X1274383Y362422D01*
X1274627Y361916D01*
X1274812Y361386D01*
X1274937Y360839D01*
X1275000Y360281D01*
X1275000Y359719D01*
M02*
