G04 EAGLE Gerber RS-274X export*
G75*
%MOMM*%
%FSLAX34Y34*%
%LPD*%
%INSoldermask Top*%
%IPPOS*%
%AMOC8*
5,1,8,0,0,1.08239X$1,22.5*%
G01*
%ADD10C,1.203200*%
%ADD11C,1.803200*%
%ADD12R,1.203200X0.803200*%
%ADD13R,1.203200X1.303200*%
%ADD14R,1.053200X1.103200*%
%ADD15C,2.133600*%
%ADD16R,2.133600X2.133600*%


D10*
X26000Y334000D03*
X25000Y105000D03*
X400000Y430000D03*
X400000Y20000D03*
X470000Y430000D03*
X470000Y20000D03*
X830000Y20000D03*
X830000Y430000D03*
X900000Y430000D03*
X900000Y20000D03*
X1270000Y110000D03*
X1270000Y360000D03*
D11*
X499700Y187600D03*
X479700Y187600D03*
X459700Y187600D03*
D12*
X264000Y415250D03*
X264000Y402250D03*
X283500Y402250D03*
X283500Y415250D03*
X54000Y362750D03*
X54000Y349750D03*
X73500Y349750D03*
X73500Y362750D03*
X211500Y415250D03*
X211500Y402250D03*
X231000Y402250D03*
X231000Y415250D03*
X159000Y415250D03*
X159000Y402250D03*
X178500Y402250D03*
X178500Y415250D03*
X106500Y415250D03*
X106500Y402250D03*
X126000Y402250D03*
X126000Y415250D03*
X316500Y362750D03*
X316500Y349750D03*
X336000Y349750D03*
X336000Y362750D03*
X264000Y362750D03*
X264000Y349750D03*
X283500Y349750D03*
X283500Y362750D03*
X211500Y362750D03*
X211500Y349750D03*
X231000Y349750D03*
X231000Y362750D03*
X159000Y362750D03*
X159000Y349750D03*
X178500Y349750D03*
X178500Y362750D03*
X106500Y362750D03*
X106500Y349750D03*
X126000Y349750D03*
X126000Y362750D03*
X369000Y310250D03*
X369000Y297250D03*
X388500Y297250D03*
X388500Y310250D03*
X316500Y310250D03*
X316500Y297250D03*
X336000Y297250D03*
X336000Y310250D03*
X264000Y310250D03*
X264000Y297250D03*
X283500Y297250D03*
X283500Y310250D03*
X211500Y310250D03*
X211500Y297250D03*
X231000Y297250D03*
X231000Y310250D03*
X159000Y310250D03*
X159000Y297250D03*
X178500Y297250D03*
X178500Y310250D03*
X106500Y310250D03*
X106500Y297250D03*
X126000Y297250D03*
X126000Y310250D03*
X54000Y310250D03*
X54000Y297250D03*
X73500Y297250D03*
X73500Y310250D03*
X1500Y310250D03*
X1500Y297250D03*
X21000Y297250D03*
X21000Y310250D03*
X369000Y257750D03*
X369000Y244750D03*
X388500Y244750D03*
X388500Y257750D03*
X316500Y257750D03*
X316500Y244750D03*
X336000Y244750D03*
X336000Y257750D03*
X264000Y257750D03*
X264000Y244750D03*
X283500Y244750D03*
X283500Y257750D03*
X211500Y257750D03*
X211500Y244750D03*
X231000Y244750D03*
X231000Y257750D03*
X159000Y257750D03*
X159000Y244750D03*
X178500Y244750D03*
X178500Y257750D03*
X106500Y257750D03*
X106500Y244750D03*
X126000Y244750D03*
X126000Y257750D03*
X54000Y257750D03*
X54000Y244750D03*
X73500Y244750D03*
X73500Y257750D03*
X1500Y257750D03*
X1500Y244750D03*
X21000Y244750D03*
X21000Y257750D03*
X369000Y205250D03*
X369000Y192250D03*
X388500Y192250D03*
X388500Y205250D03*
X316500Y205250D03*
X316500Y192250D03*
X336000Y192250D03*
X336000Y205250D03*
X264000Y205250D03*
X264000Y192250D03*
X283500Y192250D03*
X283500Y205250D03*
X211500Y205250D03*
X211500Y192250D03*
X231000Y192250D03*
X231000Y205250D03*
X159000Y205250D03*
X159000Y192250D03*
X178500Y192250D03*
X178500Y205250D03*
X106500Y205250D03*
X106500Y192250D03*
X126000Y192250D03*
X126000Y205250D03*
X54000Y205250D03*
X54000Y192250D03*
X73500Y192250D03*
X73500Y205250D03*
X1500Y205250D03*
X1500Y192250D03*
X21000Y192250D03*
X21000Y205250D03*
X369000Y152750D03*
X369000Y139750D03*
X388500Y139750D03*
X388500Y152750D03*
X316500Y152750D03*
X316500Y139750D03*
X336000Y139750D03*
X336000Y152750D03*
X264000Y152750D03*
X264000Y139750D03*
X283500Y139750D03*
X283500Y152750D03*
X211500Y152750D03*
X211500Y139750D03*
X231000Y139750D03*
X231000Y152750D03*
X159000Y152750D03*
X159000Y139750D03*
X178500Y139750D03*
X178500Y152750D03*
X106500Y152750D03*
X106500Y139750D03*
X126000Y139750D03*
X126000Y152750D03*
X54000Y152750D03*
X54000Y139750D03*
X73500Y139750D03*
X73500Y152750D03*
X1500Y152750D03*
X1500Y139750D03*
X21000Y139750D03*
X21000Y152750D03*
X316500Y100250D03*
X316500Y87250D03*
X336000Y87250D03*
X336000Y100250D03*
X264000Y100250D03*
X264000Y87250D03*
X283500Y87250D03*
X283500Y100250D03*
X211500Y100250D03*
X211500Y87250D03*
X231000Y87250D03*
X231000Y100250D03*
X159000Y100250D03*
X159000Y87250D03*
X178500Y87250D03*
X178500Y100250D03*
X106500Y100250D03*
X106500Y87250D03*
X126000Y87250D03*
X126000Y100250D03*
X54000Y100250D03*
X54000Y87250D03*
X73500Y87250D03*
X73500Y100250D03*
X264000Y47750D03*
X264000Y34750D03*
X283500Y34750D03*
X283500Y47750D03*
X211500Y47750D03*
X211500Y34750D03*
X231000Y34750D03*
X231000Y47750D03*
X159000Y47750D03*
X159000Y34750D03*
X178500Y34750D03*
X178500Y47750D03*
X106500Y47750D03*
X106500Y34750D03*
X126000Y34750D03*
X126000Y47750D03*
X481720Y68688D03*
X481720Y81688D03*
X462220Y81688D03*
X462220Y68688D03*
X535060Y68688D03*
X535060Y81688D03*
X515560Y81688D03*
X515560Y68688D03*
X585860Y68688D03*
X585860Y81688D03*
X566360Y81688D03*
X566360Y68688D03*
X634120Y68688D03*
X634120Y81688D03*
X614620Y81688D03*
X614620Y68688D03*
X684920Y68688D03*
X684920Y81688D03*
X665420Y81688D03*
X665420Y68688D03*
X733180Y68688D03*
X733180Y81688D03*
X713680Y81688D03*
X713680Y68688D03*
X786520Y68688D03*
X786520Y81688D03*
X767020Y81688D03*
X767020Y68688D03*
X836050Y68688D03*
X836050Y81688D03*
X816550Y81688D03*
X816550Y68688D03*
X735270Y233750D03*
X735270Y220750D03*
X754770Y220750D03*
X754770Y233750D03*
X688280Y233750D03*
X688280Y220750D03*
X707780Y220750D03*
X707780Y233750D03*
X640020Y233750D03*
X640020Y220750D03*
X659520Y220750D03*
X659520Y233750D03*
X591760Y233750D03*
X591760Y220750D03*
X611260Y220750D03*
X611260Y233750D03*
X546040Y233750D03*
X546040Y220750D03*
X565540Y220750D03*
X565540Y233750D03*
X481720Y361750D03*
X481720Y374750D03*
X462220Y374750D03*
X462220Y361750D03*
X535060Y361750D03*
X535060Y374750D03*
X515560Y374750D03*
X515560Y361750D03*
X585860Y361750D03*
X585860Y374750D03*
X566360Y374750D03*
X566360Y361750D03*
X634120Y361750D03*
X634120Y374750D03*
X614620Y374750D03*
X614620Y361750D03*
X684920Y361750D03*
X684920Y374750D03*
X665420Y374750D03*
X665420Y361750D03*
X733180Y361750D03*
X733180Y374750D03*
X713680Y374750D03*
X713680Y361750D03*
X786520Y361750D03*
X786520Y374750D03*
X767020Y374750D03*
X767020Y361750D03*
X836050Y361750D03*
X836050Y374750D03*
X816550Y374750D03*
X816550Y361750D03*
X1036000Y402250D03*
X1036000Y415250D03*
X1016500Y415250D03*
X1016500Y402250D03*
X1088500Y402250D03*
X1088500Y415250D03*
X1069000Y415250D03*
X1069000Y402250D03*
X1144550Y402250D03*
X1144550Y415250D03*
X1125050Y415250D03*
X1125050Y402250D03*
X1193500Y402250D03*
X1193500Y415250D03*
X1174000Y415250D03*
X1174000Y402250D03*
X983500Y349750D03*
X983500Y362750D03*
X964000Y362750D03*
X964000Y349750D03*
X1036000Y349750D03*
X1036000Y362750D03*
X1016500Y362750D03*
X1016500Y349750D03*
X1088500Y349750D03*
X1088500Y362750D03*
X1069000Y362750D03*
X1069000Y349750D03*
X1144550Y349750D03*
X1144550Y362750D03*
X1125050Y362750D03*
X1125050Y349750D03*
X1193500Y349750D03*
X1193500Y362750D03*
X1174000Y362750D03*
X1174000Y349750D03*
X1246000Y349750D03*
X1246000Y362750D03*
X1226500Y362750D03*
X1226500Y349750D03*
X931000Y297250D03*
X931000Y310250D03*
X911500Y310250D03*
X911500Y297250D03*
X983500Y297250D03*
X983500Y310250D03*
X964000Y310250D03*
X964000Y297250D03*
X1036000Y297250D03*
X1036000Y310250D03*
X1016500Y310250D03*
X1016500Y297250D03*
X1088500Y297250D03*
X1088500Y310250D03*
X1069000Y310250D03*
X1069000Y297250D03*
X1144550Y297250D03*
X1144550Y310250D03*
X1125050Y310250D03*
X1125050Y297250D03*
X1193500Y297250D03*
X1193500Y310250D03*
X1174000Y310250D03*
X1174000Y297250D03*
X1246000Y297250D03*
X1246000Y310250D03*
X1226500Y310250D03*
X1226500Y297250D03*
X1298500Y297250D03*
X1298500Y310250D03*
X1279000Y310250D03*
X1279000Y297250D03*
X931000Y244750D03*
X931000Y257750D03*
X911500Y257750D03*
X911500Y244750D03*
X983500Y244750D03*
X983500Y257750D03*
X964000Y257750D03*
X964000Y244750D03*
X1036000Y244750D03*
X1036000Y257750D03*
X1016500Y257750D03*
X1016500Y244750D03*
X1088500Y244750D03*
X1088500Y257750D03*
X1069000Y257750D03*
X1069000Y244750D03*
X1144550Y244750D03*
X1144550Y257750D03*
X1125050Y257750D03*
X1125050Y244750D03*
X1193500Y244750D03*
X1193500Y257750D03*
X1174000Y257750D03*
X1174000Y244750D03*
X1246000Y244750D03*
X1246000Y257750D03*
X1226500Y257750D03*
X1226500Y244750D03*
X1298500Y244750D03*
X1298500Y257750D03*
X1279000Y257750D03*
X1279000Y244750D03*
X931000Y192250D03*
X931000Y205250D03*
X911500Y205250D03*
X911500Y192250D03*
X983500Y192250D03*
X983500Y205250D03*
X964000Y205250D03*
X964000Y192250D03*
X1036000Y192250D03*
X1036000Y205250D03*
X1016500Y205250D03*
X1016500Y192250D03*
X1088500Y192250D03*
X1088500Y205250D03*
X1069000Y205250D03*
X1069000Y192250D03*
X1144550Y192250D03*
X1144550Y205250D03*
X1125050Y205250D03*
X1125050Y192250D03*
X1193500Y192250D03*
X1193500Y205250D03*
X1174000Y205250D03*
X1174000Y192250D03*
X1246000Y192250D03*
X1246000Y205250D03*
X1226500Y205250D03*
X1226500Y192250D03*
X1298500Y192250D03*
X1298500Y205250D03*
X1279000Y205250D03*
X1279000Y192250D03*
X931000Y139750D03*
X931000Y152750D03*
X911500Y152750D03*
X911500Y139750D03*
X983500Y139750D03*
X983500Y152750D03*
X964000Y152750D03*
X964000Y139750D03*
X1036000Y139750D03*
X1036000Y152750D03*
X1016500Y152750D03*
X1016500Y139750D03*
X1088500Y139750D03*
X1088500Y152750D03*
X1069000Y152750D03*
X1069000Y139750D03*
X1144550Y139750D03*
X1144550Y152750D03*
X1125050Y152750D03*
X1125050Y139750D03*
X1193500Y139750D03*
X1193500Y152750D03*
X1174000Y152750D03*
X1174000Y139750D03*
X1246000Y139750D03*
X1246000Y152750D03*
X1226500Y152750D03*
X1226500Y139750D03*
X1298500Y139750D03*
X1298500Y152750D03*
X1279000Y152750D03*
X1279000Y139750D03*
X983500Y87250D03*
X983500Y100250D03*
X964000Y100250D03*
X964000Y87250D03*
X1036000Y87250D03*
X1036000Y100250D03*
X1016500Y100250D03*
X1016500Y87250D03*
X1088500Y87250D03*
X1088500Y100250D03*
X1069000Y100250D03*
X1069000Y87250D03*
X1144550Y87250D03*
X1144550Y100250D03*
X1125050Y100250D03*
X1125050Y87250D03*
X1193500Y87250D03*
X1193500Y100250D03*
X1174000Y100250D03*
X1174000Y87250D03*
X1246000Y87250D03*
X1246000Y100250D03*
X1226500Y100250D03*
X1226500Y87250D03*
X1036000Y34750D03*
X1036000Y47750D03*
X1016500Y47750D03*
X1016500Y34750D03*
X1088500Y34750D03*
X1088500Y47750D03*
X1069000Y47750D03*
X1069000Y34750D03*
X1144550Y34750D03*
X1144550Y47750D03*
X1125050Y47750D03*
X1125050Y34750D03*
X1193500Y34750D03*
X1193500Y47750D03*
X1174000Y47750D03*
X1174000Y34750D03*
D13*
X456000Y218500D03*
X456000Y235500D03*
D14*
X232800Y388000D03*
X221200Y388000D03*
X127800Y388000D03*
X116200Y388000D03*
X273200Y336000D03*
X284800Y336000D03*
X168200Y336000D03*
X179800Y336000D03*
X63200Y336000D03*
X74800Y336000D03*
X325200Y283000D03*
X336800Y283000D03*
X220200Y283000D03*
X231800Y283000D03*
X115200Y283000D03*
X126800Y283000D03*
X10200Y283000D03*
X21800Y283000D03*
X10200Y230000D03*
X21800Y230000D03*
X377200Y230000D03*
X388800Y230000D03*
X325200Y230000D03*
X336800Y230000D03*
X220200Y230000D03*
X231800Y230000D03*
X115200Y230000D03*
X126800Y230000D03*
X10200Y178000D03*
X21800Y178000D03*
X377200Y178000D03*
X388800Y178000D03*
X325200Y178000D03*
X336800Y178000D03*
X220200Y178000D03*
X231800Y178000D03*
X115200Y178000D03*
X126800Y178000D03*
X10200Y125000D03*
X21800Y125000D03*
X377200Y126000D03*
X388800Y126000D03*
X325200Y125000D03*
X336800Y125000D03*
X220200Y125000D03*
X231800Y125000D03*
X114200Y125000D03*
X125800Y125000D03*
X62200Y74000D03*
X73800Y74000D03*
X274800Y74000D03*
X263200Y74000D03*
X167800Y74000D03*
X156200Y74000D03*
X220200Y20000D03*
X231800Y20000D03*
X135200Y20000D03*
X146800Y20000D03*
X527200Y397000D03*
X538800Y397000D03*
X624200Y397000D03*
X635800Y397000D03*
X721200Y397000D03*
X732800Y397000D03*
X825200Y397000D03*
X836800Y397000D03*
X595800Y250000D03*
X584200Y250000D03*
X695800Y250000D03*
X684200Y250000D03*
X524200Y50000D03*
X535800Y50000D03*
X624200Y50000D03*
X635800Y50000D03*
X724200Y50000D03*
X735800Y50000D03*
X824200Y50000D03*
X835800Y50000D03*
D15*
X466000Y275000D03*
D16*
X516000Y275000D03*
D14*
X1079800Y429000D03*
X1068200Y429000D03*
X1157800Y430000D03*
X1146200Y430000D03*
X1026800Y377000D03*
X1015200Y377000D03*
X1136800Y377000D03*
X1125200Y377000D03*
X1237800Y377000D03*
X1226200Y377000D03*
X974800Y324000D03*
X963200Y324000D03*
X1079800Y324000D03*
X1068200Y324000D03*
X1185800Y324000D03*
X1174200Y324000D03*
X1289800Y325000D03*
X1278200Y325000D03*
X974800Y272000D03*
X963200Y272000D03*
X1079800Y273000D03*
X1068200Y273000D03*
X1184800Y272000D03*
X1173200Y272000D03*
X1289800Y272000D03*
X1278200Y272000D03*
X974800Y221000D03*
X963200Y221000D03*
X1079800Y221000D03*
X1068200Y221000D03*
X1184800Y221000D03*
X1173200Y221000D03*
X1289800Y221000D03*
X1278200Y221000D03*
X974800Y169000D03*
X963200Y169000D03*
X1078800Y169000D03*
X1067200Y169000D03*
X1184800Y169000D03*
X1173200Y169000D03*
X1289800Y169000D03*
X1278200Y169000D03*
X1026800Y114000D03*
X1015200Y114000D03*
X1134800Y115000D03*
X1123200Y115000D03*
X1237800Y114000D03*
X1226200Y114000D03*
X1079800Y63000D03*
X1068200Y63000D03*
X1184800Y63000D03*
X1173200Y63000D03*
M02*
