M48
;GenerationSoftware,Autodesk,EAGLE,9.6.0*%
;CreationDate,2020-03-15T17:29:19Z*%
FMAT,2
ICI,OFF
METRIC,TZ,000.000
T4C0.508
T3C0.700
T2C0.900
T1C1.000
%
G90
M71
T1
X127000Y11000
X2600Y33400
X2500Y10500
X40000Y43000
X40000Y2000
X47000Y43000
X47000Y2000
X83000Y2000
X83000Y43000
X90000Y43000
X90000Y2000
X127000Y36000
T2
X46600Y27500
X51600Y27500
T3
X49970Y18760
X47970Y18760
X45970Y18760
T4
X44000Y37000
X41000Y21000
X41000Y26000
X45000Y5000
X87000Y29000
X34000Y6000
X41000Y10000
X121000Y40000
X94000Y38000
X125800Y34300
X-1000Y28000
X131000Y28000
X89000Y26000
X131000Y23400
X89000Y21000
X131000Y18200
X89000Y16000
X128800Y12400
X93000Y11000
X124000Y6600
X97600Y5500
X44000Y24000
X32000Y40000
X9400Y41500
X36000Y36000
X4200Y36300
X41000Y32500
X42000Y27400
X-1000Y23000
X40000Y19712
X-1000Y18000
X89000Y32000
X42000Y17000
X-1000Y16000
X36900Y8800
X4000Y10000
X33000Y4000
X9000Y5000
M30