M48
;GenerationSoftware,Autodesk,EAGLE,9.5.2*%
;CreationDate,2020-03-10T12:59:47Z*%
FMAT,2
ICI,OFF
METRIC,TZ,000.000
T4C0.508
T3C0.700
T2C1.000
T1C1.016
%
G90
M71
T1
X78000Y32000
X35000Y4000
T2
X127000Y11000
X47000Y43000
X3000Y34000
X3000Y11000
X40000Y43000
X40000Y2000
X47000Y2000
X83000Y2000
X83000Y43000
X90000Y43000
X90000Y2000
X127000Y34000
T3
X38240Y39470
X38240Y37470
X38240Y35470
X61100Y13650
X65100Y13650
X92050Y35500
X92050Y37500
X92050Y39500
X63100Y13650
T4
X9000Y16000
X85000Y35000
X9000Y6000
X33000Y43000
X30000Y40000
X-1000Y16000
X5000Y12000
X9000Y11000
X9000Y4300
X76887Y14887
X49000Y13650
X55000Y26000
X56000Y12000
X55000Y6000
X131000Y17000
X125000Y11687
X97000Y40000
X98050Y43000
X14000Y34000
X35300Y29000
X14000Y39000
X35000Y34000
X3075Y32000
X3325Y27000
X3075Y21500
X3500Y16000
M30