G04 EAGLE Gerber RS-274X export*
G75*
%MOMM*%
%FSLAX34Y34*%
%LPD*%
%INBottom Copper*%
%IPPOS*%
%AMOC8*
5,1,8,0,0,1.08239X$1,22.5*%
G01*
%ADD10C,1.600000*%
%ADD11C,1.879600*%
%ADD12C,1.016000*%
%ADD13C,0.203200*%


D10*
X382400Y394700D03*
X382400Y374700D03*
X382400Y354700D03*
X611000Y136500D03*
X631000Y136500D03*
X651000Y136500D03*
X920500Y355000D03*
X920500Y375000D03*
X920500Y395000D03*
D11*
X350000Y40000D03*
X780000Y320000D03*
D12*
X330000Y430000D03*
D13*
X300000Y400000D01*
D12*
X300000Y400000D03*
X-10000Y160000D03*
D13*
X-10000Y150000D01*
X0Y140000D01*
X30000Y140000D02*
X50000Y120000D01*
X30000Y140000D02*
X0Y140000D01*
D12*
X50000Y120000D03*
X90000Y43000D03*
D13*
X93000Y40000D01*
X350000Y40000D01*
D12*
X768869Y148869D03*
D13*
X768869Y268869D01*
X850000Y350000D01*
D12*
X850000Y350000D03*
X490000Y136500D03*
D13*
X490000Y200000D01*
X550000Y260000D01*
D12*
X550000Y260000D03*
X560000Y120000D03*
D13*
X550000Y110000D01*
X550000Y60000D01*
D12*
X550000Y60000D03*
X1310000Y170000D03*
D13*
X1260000Y170000D01*
X1260000Y126872D02*
X1250000Y116872D01*
D12*
X1250000Y116872D03*
D13*
X1260000Y126872D02*
X1260000Y170000D01*
D12*
X970000Y400000D03*
D13*
X970000Y419500D01*
X980500Y430000D01*
D12*
X980500Y430000D03*
X140000Y340000D03*
D13*
X140000Y390000D01*
D12*
X140000Y390000D03*
X350000Y340000D03*
X353000Y290000D03*
D13*
X353000Y337000D02*
X350000Y340000D01*
X353000Y337000D02*
X353000Y290000D01*
D12*
X30750Y320000D03*
D13*
X30750Y272500D01*
X33250Y270000D01*
D12*
X33250Y270000D03*
D13*
X33250Y217500D01*
X30750Y215000D01*
D12*
X30750Y215000D03*
D13*
X30750Y164250D01*
X35000Y160000D01*
D12*
X35000Y160000D03*
X90000Y160000D03*
D13*
X90000Y110000D01*
D12*
X90000Y110000D03*
D13*
X90000Y60000D01*
D12*
X90000Y60000D03*
M02*
