G04 EAGLE Gerber RS-274X export*
G75*
%MOMM*%
%FSLAX34Y34*%
%LPD*%
%IN*%
%IPPOS*%
%AMOC8*
5,1,8,0,0,1.08239X$1,22.5*%
G01*
%ADD10C,0.254000*%


D10*
X-30000Y225000D02*
X-29144Y205390D01*
X-26582Y185929D01*
X-22333Y166766D01*
X-16431Y148045D01*
X-8919Y129911D01*
X144Y112500D01*
X10691Y95945D01*
X22640Y80373D01*
X35901Y65901D01*
X50373Y52640D01*
X65945Y40691D01*
X82500Y30144D01*
X99911Y21081D01*
X118045Y13569D01*
X136766Y7667D01*
X155929Y3418D01*
X175390Y856D01*
X195000Y0D01*
X420000Y0D01*
X420000Y30000D01*
X430000Y30000D01*
X430000Y0D01*
X870000Y0D01*
X870000Y40000D01*
X880000Y40000D01*
X880000Y0D01*
X1105000Y0D01*
X1124610Y856D01*
X1144071Y3418D01*
X1163234Y7667D01*
X1181955Y13569D01*
X1200089Y21081D01*
X1217500Y30144D01*
X1234055Y40691D01*
X1249627Y52640D01*
X1264099Y65901D01*
X1277360Y80373D01*
X1289309Y95945D01*
X1299856Y112500D01*
X1308919Y129911D01*
X1316431Y148045D01*
X1322333Y166766D01*
X1326582Y185929D01*
X1329144Y205390D01*
X1330000Y225000D01*
X1329144Y244610D01*
X1326582Y264071D01*
X1322333Y283234D01*
X1316431Y301955D01*
X1308919Y320089D01*
X1299856Y337500D01*
X1289309Y354055D01*
X1277360Y369627D01*
X1264099Y384099D01*
X1249627Y397360D01*
X1234055Y409309D01*
X1217500Y419856D01*
X1200089Y428919D01*
X1181955Y436431D01*
X1163234Y442333D01*
X1144071Y446582D01*
X1124610Y449144D01*
X1105000Y450000D01*
X880000Y450000D01*
X880000Y410000D01*
X870000Y410000D01*
X870000Y450000D01*
X430000Y450000D01*
X430000Y420000D01*
X420000Y420000D01*
X420000Y450000D01*
X195000Y450000D01*
X175390Y449144D01*
X155929Y446582D01*
X136766Y442333D01*
X118045Y436431D01*
X99911Y428919D01*
X82500Y419856D01*
X65945Y409309D01*
X50373Y397360D01*
X35901Y384099D01*
X22640Y369627D01*
X10691Y354055D01*
X144Y337500D01*
X-8919Y320089D01*
X-16431Y301955D01*
X-22333Y283234D01*
X-26582Y264071D01*
X-29144Y244610D01*
X-30000Y225000D01*
X420000Y90000D02*
X430000Y90000D01*
X430000Y360000D01*
X420000Y360000D01*
X420000Y90000D01*
X870000Y100000D02*
X880000Y100000D01*
X880000Y350000D01*
X870000Y350000D01*
X870000Y100000D01*
X35000Y339719D02*
X34937Y339161D01*
X34812Y338614D01*
X34627Y338084D01*
X34383Y337578D01*
X34084Y337102D01*
X33734Y336663D01*
X33337Y336266D01*
X32898Y335916D01*
X32422Y335617D01*
X31916Y335373D01*
X31386Y335188D01*
X30839Y335063D01*
X30281Y335000D01*
X29719Y335000D01*
X29161Y335063D01*
X28614Y335188D01*
X28084Y335373D01*
X27578Y335617D01*
X27102Y335916D01*
X26663Y336266D01*
X26266Y336663D01*
X25916Y337102D01*
X25617Y337578D01*
X25373Y338084D01*
X25188Y338614D01*
X25063Y339161D01*
X25000Y339719D01*
X25000Y340281D01*
X25063Y340839D01*
X25188Y341386D01*
X25373Y341916D01*
X25617Y342422D01*
X25916Y342898D01*
X26266Y343337D01*
X26663Y343734D01*
X27102Y344084D01*
X27578Y344383D01*
X28084Y344627D01*
X28614Y344812D01*
X29161Y344937D01*
X29719Y345000D01*
X30281Y345000D01*
X30839Y344937D01*
X31386Y344812D01*
X31916Y344627D01*
X32422Y344383D01*
X32898Y344084D01*
X33337Y343734D01*
X33734Y343337D01*
X34084Y342898D01*
X34383Y342422D01*
X34627Y341916D01*
X34812Y341386D01*
X34937Y340839D01*
X35000Y340281D01*
X35000Y339719D01*
X35000Y109719D02*
X34937Y109161D01*
X34812Y108614D01*
X34627Y108084D01*
X34383Y107578D01*
X34084Y107102D01*
X33734Y106663D01*
X33337Y106266D01*
X32898Y105916D01*
X32422Y105617D01*
X31916Y105373D01*
X31386Y105188D01*
X30839Y105063D01*
X30281Y105000D01*
X29719Y105000D01*
X29161Y105063D01*
X28614Y105188D01*
X28084Y105373D01*
X27578Y105617D01*
X27102Y105916D01*
X26663Y106266D01*
X26266Y106663D01*
X25916Y107102D01*
X25617Y107578D01*
X25373Y108084D01*
X25188Y108614D01*
X25063Y109161D01*
X25000Y109719D01*
X25000Y110281D01*
X25063Y110839D01*
X25188Y111386D01*
X25373Y111916D01*
X25617Y112422D01*
X25916Y112898D01*
X26266Y113337D01*
X26663Y113734D01*
X27102Y114084D01*
X27578Y114383D01*
X28084Y114627D01*
X28614Y114812D01*
X29161Y114937D01*
X29719Y115000D01*
X30281Y115000D01*
X30839Y114937D01*
X31386Y114812D01*
X31916Y114627D01*
X32422Y114383D01*
X32898Y114084D01*
X33337Y113734D01*
X33734Y113337D01*
X34084Y112898D01*
X34383Y112422D01*
X34627Y111916D01*
X34812Y111386D01*
X34937Y110839D01*
X35000Y110281D01*
X35000Y109719D01*
X405000Y429719D02*
X404937Y429161D01*
X404812Y428614D01*
X404627Y428084D01*
X404383Y427578D01*
X404084Y427102D01*
X403734Y426663D01*
X403337Y426266D01*
X402898Y425916D01*
X402422Y425617D01*
X401916Y425373D01*
X401386Y425188D01*
X400839Y425063D01*
X400281Y425000D01*
X399719Y425000D01*
X399161Y425063D01*
X398614Y425188D01*
X398084Y425373D01*
X397578Y425617D01*
X397102Y425916D01*
X396663Y426266D01*
X396266Y426663D01*
X395916Y427102D01*
X395617Y427578D01*
X395373Y428084D01*
X395188Y428614D01*
X395063Y429161D01*
X395000Y429719D01*
X395000Y430281D01*
X395063Y430839D01*
X395188Y431386D01*
X395373Y431916D01*
X395617Y432422D01*
X395916Y432898D01*
X396266Y433337D01*
X396663Y433734D01*
X397102Y434084D01*
X397578Y434383D01*
X398084Y434627D01*
X398614Y434812D01*
X399161Y434937D01*
X399719Y435000D01*
X400281Y435000D01*
X400839Y434937D01*
X401386Y434812D01*
X401916Y434627D01*
X402422Y434383D01*
X402898Y434084D01*
X403337Y433734D01*
X403734Y433337D01*
X404084Y432898D01*
X404383Y432422D01*
X404627Y431916D01*
X404812Y431386D01*
X404937Y430839D01*
X405000Y430281D01*
X405000Y429719D01*
X405000Y19719D02*
X404937Y19161D01*
X404812Y18614D01*
X404627Y18084D01*
X404383Y17578D01*
X404084Y17102D01*
X403734Y16663D01*
X403337Y16266D01*
X402898Y15916D01*
X402422Y15617D01*
X401916Y15373D01*
X401386Y15188D01*
X400839Y15063D01*
X400281Y15000D01*
X399719Y15000D01*
X399161Y15063D01*
X398614Y15188D01*
X398084Y15373D01*
X397578Y15617D01*
X397102Y15916D01*
X396663Y16266D01*
X396266Y16663D01*
X395916Y17102D01*
X395617Y17578D01*
X395373Y18084D01*
X395188Y18614D01*
X395063Y19161D01*
X395000Y19719D01*
X395000Y20281D01*
X395063Y20839D01*
X395188Y21386D01*
X395373Y21916D01*
X395617Y22422D01*
X395916Y22898D01*
X396266Y23337D01*
X396663Y23734D01*
X397102Y24084D01*
X397578Y24383D01*
X398084Y24627D01*
X398614Y24812D01*
X399161Y24937D01*
X399719Y25000D01*
X400281Y25000D01*
X400839Y24937D01*
X401386Y24812D01*
X401916Y24627D01*
X402422Y24383D01*
X402898Y24084D01*
X403337Y23734D01*
X403734Y23337D01*
X404084Y22898D01*
X404383Y22422D01*
X404627Y21916D01*
X404812Y21386D01*
X404937Y20839D01*
X405000Y20281D01*
X405000Y19719D01*
X475000Y429719D02*
X474937Y429161D01*
X474812Y428614D01*
X474627Y428084D01*
X474383Y427578D01*
X474084Y427102D01*
X473734Y426663D01*
X473337Y426266D01*
X472898Y425916D01*
X472422Y425617D01*
X471916Y425373D01*
X471386Y425188D01*
X470839Y425063D01*
X470281Y425000D01*
X469719Y425000D01*
X469161Y425063D01*
X468614Y425188D01*
X468084Y425373D01*
X467578Y425617D01*
X467102Y425916D01*
X466663Y426266D01*
X466266Y426663D01*
X465916Y427102D01*
X465617Y427578D01*
X465373Y428084D01*
X465188Y428614D01*
X465063Y429161D01*
X465000Y429719D01*
X465000Y430281D01*
X465063Y430839D01*
X465188Y431386D01*
X465373Y431916D01*
X465617Y432422D01*
X465916Y432898D01*
X466266Y433337D01*
X466663Y433734D01*
X467102Y434084D01*
X467578Y434383D01*
X468084Y434627D01*
X468614Y434812D01*
X469161Y434937D01*
X469719Y435000D01*
X470281Y435000D01*
X470839Y434937D01*
X471386Y434812D01*
X471916Y434627D01*
X472422Y434383D01*
X472898Y434084D01*
X473337Y433734D01*
X473734Y433337D01*
X474084Y432898D01*
X474383Y432422D01*
X474627Y431916D01*
X474812Y431386D01*
X474937Y430839D01*
X475000Y430281D01*
X475000Y429719D01*
X475000Y19719D02*
X474937Y19161D01*
X474812Y18614D01*
X474627Y18084D01*
X474383Y17578D01*
X474084Y17102D01*
X473734Y16663D01*
X473337Y16266D01*
X472898Y15916D01*
X472422Y15617D01*
X471916Y15373D01*
X471386Y15188D01*
X470839Y15063D01*
X470281Y15000D01*
X469719Y15000D01*
X469161Y15063D01*
X468614Y15188D01*
X468084Y15373D01*
X467578Y15617D01*
X467102Y15916D01*
X466663Y16266D01*
X466266Y16663D01*
X465916Y17102D01*
X465617Y17578D01*
X465373Y18084D01*
X465188Y18614D01*
X465063Y19161D01*
X465000Y19719D01*
X465000Y20281D01*
X465063Y20839D01*
X465188Y21386D01*
X465373Y21916D01*
X465617Y22422D01*
X465916Y22898D01*
X466266Y23337D01*
X466663Y23734D01*
X467102Y24084D01*
X467578Y24383D01*
X468084Y24627D01*
X468614Y24812D01*
X469161Y24937D01*
X469719Y25000D01*
X470281Y25000D01*
X470839Y24937D01*
X471386Y24812D01*
X471916Y24627D01*
X472422Y24383D01*
X472898Y24084D01*
X473337Y23734D01*
X473734Y23337D01*
X474084Y22898D01*
X474383Y22422D01*
X474627Y21916D01*
X474812Y21386D01*
X474937Y20839D01*
X475000Y20281D01*
X475000Y19719D01*
X835000Y19719D02*
X834937Y19161D01*
X834812Y18614D01*
X834627Y18084D01*
X834383Y17578D01*
X834084Y17102D01*
X833734Y16663D01*
X833337Y16266D01*
X832898Y15916D01*
X832422Y15617D01*
X831916Y15373D01*
X831386Y15188D01*
X830839Y15063D01*
X830281Y15000D01*
X829719Y15000D01*
X829161Y15063D01*
X828614Y15188D01*
X828084Y15373D01*
X827578Y15617D01*
X827102Y15916D01*
X826663Y16266D01*
X826266Y16663D01*
X825916Y17102D01*
X825617Y17578D01*
X825373Y18084D01*
X825188Y18614D01*
X825063Y19161D01*
X825000Y19719D01*
X825000Y20281D01*
X825063Y20839D01*
X825188Y21386D01*
X825373Y21916D01*
X825617Y22422D01*
X825916Y22898D01*
X826266Y23337D01*
X826663Y23734D01*
X827102Y24084D01*
X827578Y24383D01*
X828084Y24627D01*
X828614Y24812D01*
X829161Y24937D01*
X829719Y25000D01*
X830281Y25000D01*
X830839Y24937D01*
X831386Y24812D01*
X831916Y24627D01*
X832422Y24383D01*
X832898Y24084D01*
X833337Y23734D01*
X833734Y23337D01*
X834084Y22898D01*
X834383Y22422D01*
X834627Y21916D01*
X834812Y21386D01*
X834937Y20839D01*
X835000Y20281D01*
X835000Y19719D01*
X835000Y429719D02*
X834937Y429161D01*
X834812Y428614D01*
X834627Y428084D01*
X834383Y427578D01*
X834084Y427102D01*
X833734Y426663D01*
X833337Y426266D01*
X832898Y425916D01*
X832422Y425617D01*
X831916Y425373D01*
X831386Y425188D01*
X830839Y425063D01*
X830281Y425000D01*
X829719Y425000D01*
X829161Y425063D01*
X828614Y425188D01*
X828084Y425373D01*
X827578Y425617D01*
X827102Y425916D01*
X826663Y426266D01*
X826266Y426663D01*
X825916Y427102D01*
X825617Y427578D01*
X825373Y428084D01*
X825188Y428614D01*
X825063Y429161D01*
X825000Y429719D01*
X825000Y430281D01*
X825063Y430839D01*
X825188Y431386D01*
X825373Y431916D01*
X825617Y432422D01*
X825916Y432898D01*
X826266Y433337D01*
X826663Y433734D01*
X827102Y434084D01*
X827578Y434383D01*
X828084Y434627D01*
X828614Y434812D01*
X829161Y434937D01*
X829719Y435000D01*
X830281Y435000D01*
X830839Y434937D01*
X831386Y434812D01*
X831916Y434627D01*
X832422Y434383D01*
X832898Y434084D01*
X833337Y433734D01*
X833734Y433337D01*
X834084Y432898D01*
X834383Y432422D01*
X834627Y431916D01*
X834812Y431386D01*
X834937Y430839D01*
X835000Y430281D01*
X835000Y429719D01*
X905000Y429719D02*
X904937Y429161D01*
X904812Y428614D01*
X904627Y428084D01*
X904383Y427578D01*
X904084Y427102D01*
X903734Y426663D01*
X903337Y426266D01*
X902898Y425916D01*
X902422Y425617D01*
X901916Y425373D01*
X901386Y425188D01*
X900839Y425063D01*
X900281Y425000D01*
X899719Y425000D01*
X899161Y425063D01*
X898614Y425188D01*
X898084Y425373D01*
X897578Y425617D01*
X897102Y425916D01*
X896663Y426266D01*
X896266Y426663D01*
X895916Y427102D01*
X895617Y427578D01*
X895373Y428084D01*
X895188Y428614D01*
X895063Y429161D01*
X895000Y429719D01*
X895000Y430281D01*
X895063Y430839D01*
X895188Y431386D01*
X895373Y431916D01*
X895617Y432422D01*
X895916Y432898D01*
X896266Y433337D01*
X896663Y433734D01*
X897102Y434084D01*
X897578Y434383D01*
X898084Y434627D01*
X898614Y434812D01*
X899161Y434937D01*
X899719Y435000D01*
X900281Y435000D01*
X900839Y434937D01*
X901386Y434812D01*
X901916Y434627D01*
X902422Y434383D01*
X902898Y434084D01*
X903337Y433734D01*
X903734Y433337D01*
X904084Y432898D01*
X904383Y432422D01*
X904627Y431916D01*
X904812Y431386D01*
X904937Y430839D01*
X905000Y430281D01*
X905000Y429719D01*
X905000Y19719D02*
X904937Y19161D01*
X904812Y18614D01*
X904627Y18084D01*
X904383Y17578D01*
X904084Y17102D01*
X903734Y16663D01*
X903337Y16266D01*
X902898Y15916D01*
X902422Y15617D01*
X901916Y15373D01*
X901386Y15188D01*
X900839Y15063D01*
X900281Y15000D01*
X899719Y15000D01*
X899161Y15063D01*
X898614Y15188D01*
X898084Y15373D01*
X897578Y15617D01*
X897102Y15916D01*
X896663Y16266D01*
X896266Y16663D01*
X895916Y17102D01*
X895617Y17578D01*
X895373Y18084D01*
X895188Y18614D01*
X895063Y19161D01*
X895000Y19719D01*
X895000Y20281D01*
X895063Y20839D01*
X895188Y21386D01*
X895373Y21916D01*
X895617Y22422D01*
X895916Y22898D01*
X896266Y23337D01*
X896663Y23734D01*
X897102Y24084D01*
X897578Y24383D01*
X898084Y24627D01*
X898614Y24812D01*
X899161Y24937D01*
X899719Y25000D01*
X900281Y25000D01*
X900839Y24937D01*
X901386Y24812D01*
X901916Y24627D01*
X902422Y24383D01*
X902898Y24084D01*
X903337Y23734D01*
X903734Y23337D01*
X904084Y22898D01*
X904383Y22422D01*
X904627Y21916D01*
X904812Y21386D01*
X904937Y20839D01*
X905000Y20281D01*
X905000Y19719D01*
X1275000Y109719D02*
X1274937Y109161D01*
X1274812Y108614D01*
X1274627Y108084D01*
X1274383Y107578D01*
X1274084Y107102D01*
X1273734Y106663D01*
X1273337Y106266D01*
X1272898Y105916D01*
X1272422Y105617D01*
X1271916Y105373D01*
X1271386Y105188D01*
X1270839Y105063D01*
X1270281Y105000D01*
X1269719Y105000D01*
X1269161Y105063D01*
X1268614Y105188D01*
X1268084Y105373D01*
X1267578Y105617D01*
X1267102Y105916D01*
X1266663Y106266D01*
X1266266Y106663D01*
X1265916Y107102D01*
X1265617Y107578D01*
X1265373Y108084D01*
X1265188Y108614D01*
X1265063Y109161D01*
X1265000Y109719D01*
X1265000Y110281D01*
X1265063Y110839D01*
X1265188Y111386D01*
X1265373Y111916D01*
X1265617Y112422D01*
X1265916Y112898D01*
X1266266Y113337D01*
X1266663Y113734D01*
X1267102Y114084D01*
X1267578Y114383D01*
X1268084Y114627D01*
X1268614Y114812D01*
X1269161Y114937D01*
X1269719Y115000D01*
X1270281Y115000D01*
X1270839Y114937D01*
X1271386Y114812D01*
X1271916Y114627D01*
X1272422Y114383D01*
X1272898Y114084D01*
X1273337Y113734D01*
X1273734Y113337D01*
X1274084Y112898D01*
X1274383Y112422D01*
X1274627Y111916D01*
X1274812Y111386D01*
X1274937Y110839D01*
X1275000Y110281D01*
X1275000Y109719D01*
X1275000Y339719D02*
X1274937Y339161D01*
X1274812Y338614D01*
X1274627Y338084D01*
X1274383Y337578D01*
X1274084Y337102D01*
X1273734Y336663D01*
X1273337Y336266D01*
X1272898Y335916D01*
X1272422Y335617D01*
X1271916Y335373D01*
X1271386Y335188D01*
X1270839Y335063D01*
X1270281Y335000D01*
X1269719Y335000D01*
X1269161Y335063D01*
X1268614Y335188D01*
X1268084Y335373D01*
X1267578Y335617D01*
X1267102Y335916D01*
X1266663Y336266D01*
X1266266Y336663D01*
X1265916Y337102D01*
X1265617Y337578D01*
X1265373Y338084D01*
X1265188Y338614D01*
X1265063Y339161D01*
X1265000Y339719D01*
X1265000Y340281D01*
X1265063Y340839D01*
X1265188Y341386D01*
X1265373Y341916D01*
X1265617Y342422D01*
X1265916Y342898D01*
X1266266Y343337D01*
X1266663Y343734D01*
X1267102Y344084D01*
X1267578Y344383D01*
X1268084Y344627D01*
X1268614Y344812D01*
X1269161Y344937D01*
X1269719Y345000D01*
X1270281Y345000D01*
X1270839Y344937D01*
X1271386Y344812D01*
X1271916Y344627D01*
X1272422Y344383D01*
X1272898Y344084D01*
X1273337Y343734D01*
X1273734Y343337D01*
X1274084Y342898D01*
X1274383Y342422D01*
X1274627Y341916D01*
X1274812Y341386D01*
X1274937Y340839D01*
X1275000Y340281D01*
X1275000Y339719D01*
X430000Y409719D02*
X429937Y409161D01*
X429812Y408614D01*
X429627Y408084D01*
X429383Y407578D01*
X429084Y407102D01*
X428734Y406663D01*
X428337Y406266D01*
X427898Y405916D01*
X427422Y405617D01*
X426916Y405373D01*
X426386Y405188D01*
X425839Y405063D01*
X425281Y405000D01*
X424719Y405000D01*
X424161Y405063D01*
X423614Y405188D01*
X423084Y405373D01*
X422578Y405617D01*
X422102Y405916D01*
X421663Y406266D01*
X421266Y406663D01*
X420916Y407102D01*
X420617Y407578D01*
X420373Y408084D01*
X420188Y408614D01*
X420063Y409161D01*
X420000Y409719D01*
X420000Y410281D01*
X420063Y410839D01*
X420188Y411386D01*
X420373Y411916D01*
X420617Y412422D01*
X420916Y412898D01*
X421266Y413337D01*
X421663Y413734D01*
X422102Y414084D01*
X422578Y414383D01*
X423084Y414627D01*
X423614Y414812D01*
X424161Y414937D01*
X424719Y415000D01*
X425281Y415000D01*
X425839Y414937D01*
X426386Y414812D01*
X426916Y414627D01*
X427422Y414383D01*
X427898Y414084D01*
X428337Y413734D01*
X428734Y413337D01*
X429084Y412898D01*
X429383Y412422D01*
X429627Y411916D01*
X429812Y411386D01*
X429937Y410839D01*
X430000Y410281D01*
X430000Y409719D01*
X430000Y388719D02*
X429937Y388161D01*
X429812Y387614D01*
X429627Y387084D01*
X429383Y386578D01*
X429084Y386102D01*
X428734Y385663D01*
X428337Y385266D01*
X427898Y384916D01*
X427422Y384617D01*
X426916Y384373D01*
X426386Y384188D01*
X425839Y384063D01*
X425281Y384000D01*
X424719Y384000D01*
X424161Y384063D01*
X423614Y384188D01*
X423084Y384373D01*
X422578Y384617D01*
X422102Y384916D01*
X421663Y385266D01*
X421266Y385663D01*
X420916Y386102D01*
X420617Y386578D01*
X420373Y387084D01*
X420188Y387614D01*
X420063Y388161D01*
X420000Y388719D01*
X420000Y389281D01*
X420063Y389839D01*
X420188Y390386D01*
X420373Y390916D01*
X420617Y391422D01*
X420916Y391898D01*
X421266Y392337D01*
X421663Y392734D01*
X422102Y393084D01*
X422578Y393383D01*
X423084Y393627D01*
X423614Y393812D01*
X424161Y393937D01*
X424719Y394000D01*
X425281Y394000D01*
X425839Y393937D01*
X426386Y393812D01*
X426916Y393627D01*
X427422Y393383D01*
X427898Y393084D01*
X428337Y392734D01*
X428734Y392337D01*
X429084Y391898D01*
X429383Y391422D01*
X429627Y390916D01*
X429812Y390386D01*
X429937Y389839D01*
X430000Y389281D01*
X430000Y388719D01*
X430000Y368719D02*
X429937Y368161D01*
X429812Y367614D01*
X429627Y367084D01*
X429383Y366578D01*
X429084Y366102D01*
X428734Y365663D01*
X428337Y365266D01*
X427898Y364916D01*
X427422Y364617D01*
X426916Y364373D01*
X426386Y364188D01*
X425839Y364063D01*
X425281Y364000D01*
X424719Y364000D01*
X424161Y364063D01*
X423614Y364188D01*
X423084Y364373D01*
X422578Y364617D01*
X422102Y364916D01*
X421663Y365266D01*
X421266Y365663D01*
X420916Y366102D01*
X420617Y366578D01*
X420373Y367084D01*
X420188Y367614D01*
X420063Y368161D01*
X420000Y368719D01*
X420000Y369281D01*
X420063Y369839D01*
X420188Y370386D01*
X420373Y370916D01*
X420617Y371422D01*
X420916Y371898D01*
X421266Y372337D01*
X421663Y372734D01*
X422102Y373084D01*
X422578Y373383D01*
X423084Y373627D01*
X423614Y373812D01*
X424161Y373937D01*
X424719Y374000D01*
X425281Y374000D01*
X425839Y373937D01*
X426386Y373812D01*
X426916Y373627D01*
X427422Y373383D01*
X427898Y373084D01*
X428337Y372734D01*
X428734Y372337D01*
X429084Y371898D01*
X429383Y371422D01*
X429627Y370916D01*
X429812Y370386D01*
X429937Y369839D01*
X430000Y369281D01*
X430000Y368719D01*
X430000Y59719D02*
X429937Y59161D01*
X429812Y58614D01*
X429627Y58084D01*
X429383Y57578D01*
X429084Y57102D01*
X428734Y56663D01*
X428337Y56266D01*
X427898Y55916D01*
X427422Y55617D01*
X426916Y55373D01*
X426386Y55188D01*
X425839Y55063D01*
X425281Y55000D01*
X424719Y55000D01*
X424161Y55063D01*
X423614Y55188D01*
X423084Y55373D01*
X422578Y55617D01*
X422102Y55916D01*
X421663Y56266D01*
X421266Y56663D01*
X420916Y57102D01*
X420617Y57578D01*
X420373Y58084D01*
X420188Y58614D01*
X420063Y59161D01*
X420000Y59719D01*
X420000Y60281D01*
X420063Y60839D01*
X420188Y61386D01*
X420373Y61916D01*
X420617Y62422D01*
X420916Y62898D01*
X421266Y63337D01*
X421663Y63734D01*
X422102Y64084D01*
X422578Y64383D01*
X423084Y64627D01*
X423614Y64812D01*
X424161Y64937D01*
X424719Y65000D01*
X425281Y65000D01*
X425839Y64937D01*
X426386Y64812D01*
X426916Y64627D01*
X427422Y64383D01*
X427898Y64084D01*
X428337Y63734D01*
X428734Y63337D01*
X429084Y62898D01*
X429383Y62422D01*
X429627Y61916D01*
X429812Y61386D01*
X429937Y60839D01*
X430000Y60281D01*
X430000Y59719D01*
X430000Y39719D02*
X429937Y39161D01*
X429812Y38614D01*
X429627Y38084D01*
X429383Y37578D01*
X429084Y37102D01*
X428734Y36663D01*
X428337Y36266D01*
X427898Y35916D01*
X427422Y35617D01*
X426916Y35373D01*
X426386Y35188D01*
X425839Y35063D01*
X425281Y35000D01*
X424719Y35000D01*
X424161Y35063D01*
X423614Y35188D01*
X423084Y35373D01*
X422578Y35617D01*
X422102Y35916D01*
X421663Y36266D01*
X421266Y36663D01*
X420916Y37102D01*
X420617Y37578D01*
X420373Y38084D01*
X420188Y38614D01*
X420063Y39161D01*
X420000Y39719D01*
X420000Y40281D01*
X420063Y40839D01*
X420188Y41386D01*
X420373Y41916D01*
X420617Y42422D01*
X420916Y42898D01*
X421266Y43337D01*
X421663Y43734D01*
X422102Y44084D01*
X422578Y44383D01*
X423084Y44627D01*
X423614Y44812D01*
X424161Y44937D01*
X424719Y45000D01*
X425281Y45000D01*
X425839Y44937D01*
X426386Y44812D01*
X426916Y44627D01*
X427422Y44383D01*
X427898Y44084D01*
X428337Y43734D01*
X428734Y43337D01*
X429084Y42898D01*
X429383Y42422D01*
X429627Y41916D01*
X429812Y41386D01*
X429937Y40839D01*
X430000Y40281D01*
X430000Y39719D01*
X880000Y399719D02*
X879937Y399161D01*
X879812Y398614D01*
X879627Y398084D01*
X879383Y397578D01*
X879084Y397102D01*
X878734Y396663D01*
X878337Y396266D01*
X877898Y395916D01*
X877422Y395617D01*
X876916Y395373D01*
X876386Y395188D01*
X875839Y395063D01*
X875281Y395000D01*
X874719Y395000D01*
X874161Y395063D01*
X873614Y395188D01*
X873084Y395373D01*
X872578Y395617D01*
X872102Y395916D01*
X871663Y396266D01*
X871266Y396663D01*
X870916Y397102D01*
X870617Y397578D01*
X870373Y398084D01*
X870188Y398614D01*
X870063Y399161D01*
X870000Y399719D01*
X870000Y400281D01*
X870063Y400839D01*
X870188Y401386D01*
X870373Y401916D01*
X870617Y402422D01*
X870916Y402898D01*
X871266Y403337D01*
X871663Y403734D01*
X872102Y404084D01*
X872578Y404383D01*
X873084Y404627D01*
X873614Y404812D01*
X874161Y404937D01*
X874719Y405000D01*
X875281Y405000D01*
X875839Y404937D01*
X876386Y404812D01*
X876916Y404627D01*
X877422Y404383D01*
X877898Y404084D01*
X878337Y403734D01*
X878734Y403337D01*
X879084Y402898D01*
X879383Y402422D01*
X879627Y401916D01*
X879812Y401386D01*
X879937Y400839D01*
X880000Y400281D01*
X880000Y399719D01*
X880000Y379719D02*
X879937Y379161D01*
X879812Y378614D01*
X879627Y378084D01*
X879383Y377578D01*
X879084Y377102D01*
X878734Y376663D01*
X878337Y376266D01*
X877898Y375916D01*
X877422Y375617D01*
X876916Y375373D01*
X876386Y375188D01*
X875839Y375063D01*
X875281Y375000D01*
X874719Y375000D01*
X874161Y375063D01*
X873614Y375188D01*
X873084Y375373D01*
X872578Y375617D01*
X872102Y375916D01*
X871663Y376266D01*
X871266Y376663D01*
X870916Y377102D01*
X870617Y377578D01*
X870373Y378084D01*
X870188Y378614D01*
X870063Y379161D01*
X870000Y379719D01*
X870000Y380281D01*
X870063Y380839D01*
X870188Y381386D01*
X870373Y381916D01*
X870617Y382422D01*
X870916Y382898D01*
X871266Y383337D01*
X871663Y383734D01*
X872102Y384084D01*
X872578Y384383D01*
X873084Y384627D01*
X873614Y384812D01*
X874161Y384937D01*
X874719Y385000D01*
X875281Y385000D01*
X875839Y384937D01*
X876386Y384812D01*
X876916Y384627D01*
X877422Y384383D01*
X877898Y384084D01*
X878337Y383734D01*
X878734Y383337D01*
X879084Y382898D01*
X879383Y382422D01*
X879627Y381916D01*
X879812Y381386D01*
X879937Y380839D01*
X880000Y380281D01*
X880000Y379719D01*
X880000Y359719D02*
X879937Y359161D01*
X879812Y358614D01*
X879627Y358084D01*
X879383Y357578D01*
X879084Y357102D01*
X878734Y356663D01*
X878337Y356266D01*
X877898Y355916D01*
X877422Y355617D01*
X876916Y355373D01*
X876386Y355188D01*
X875839Y355063D01*
X875281Y355000D01*
X874719Y355000D01*
X874161Y355063D01*
X873614Y355188D01*
X873084Y355373D01*
X872578Y355617D01*
X872102Y355916D01*
X871663Y356266D01*
X871266Y356663D01*
X870916Y357102D01*
X870617Y357578D01*
X870373Y358084D01*
X870188Y358614D01*
X870063Y359161D01*
X870000Y359719D01*
X870000Y360281D01*
X870063Y360839D01*
X870188Y361386D01*
X870373Y361916D01*
X870617Y362422D01*
X870916Y362898D01*
X871266Y363337D01*
X871663Y363734D01*
X872102Y364084D01*
X872578Y364383D01*
X873084Y364627D01*
X873614Y364812D01*
X874161Y364937D01*
X874719Y365000D01*
X875281Y365000D01*
X875839Y364937D01*
X876386Y364812D01*
X876916Y364627D01*
X877422Y364383D01*
X877898Y364084D01*
X878337Y363734D01*
X878734Y363337D01*
X879084Y362898D01*
X879383Y362422D01*
X879627Y361916D01*
X879812Y361386D01*
X879937Y360839D01*
X880000Y360281D01*
X880000Y359719D01*
X880000Y49719D02*
X879937Y49161D01*
X879812Y48614D01*
X879627Y48084D01*
X879383Y47578D01*
X879084Y47102D01*
X878734Y46663D01*
X878337Y46266D01*
X877898Y45916D01*
X877422Y45617D01*
X876916Y45373D01*
X876386Y45188D01*
X875839Y45063D01*
X875281Y45000D01*
X874719Y45000D01*
X874161Y45063D01*
X873614Y45188D01*
X873084Y45373D01*
X872578Y45617D01*
X872102Y45916D01*
X871663Y46266D01*
X871266Y46663D01*
X870916Y47102D01*
X870617Y47578D01*
X870373Y48084D01*
X870188Y48614D01*
X870063Y49161D01*
X870000Y49719D01*
X870000Y50281D01*
X870063Y50839D01*
X870188Y51386D01*
X870373Y51916D01*
X870617Y52422D01*
X870916Y52898D01*
X871266Y53337D01*
X871663Y53734D01*
X872102Y54084D01*
X872578Y54383D01*
X873084Y54627D01*
X873614Y54812D01*
X874161Y54937D01*
X874719Y55000D01*
X875281Y55000D01*
X875839Y54937D01*
X876386Y54812D01*
X876916Y54627D01*
X877422Y54383D01*
X877898Y54084D01*
X878337Y53734D01*
X878734Y53337D01*
X879084Y52898D01*
X879383Y52422D01*
X879627Y51916D01*
X879812Y51386D01*
X879937Y50839D01*
X880000Y50281D01*
X880000Y49719D01*
X880000Y69719D02*
X879937Y69161D01*
X879812Y68614D01*
X879627Y68084D01*
X879383Y67578D01*
X879084Y67102D01*
X878734Y66663D01*
X878337Y66266D01*
X877898Y65916D01*
X877422Y65617D01*
X876916Y65373D01*
X876386Y65188D01*
X875839Y65063D01*
X875281Y65000D01*
X874719Y65000D01*
X874161Y65063D01*
X873614Y65188D01*
X873084Y65373D01*
X872578Y65617D01*
X872102Y65916D01*
X871663Y66266D01*
X871266Y66663D01*
X870916Y67102D01*
X870617Y67578D01*
X870373Y68084D01*
X870188Y68614D01*
X870063Y69161D01*
X870000Y69719D01*
X870000Y70281D01*
X870063Y70839D01*
X870188Y71386D01*
X870373Y71916D01*
X870617Y72422D01*
X870916Y72898D01*
X871266Y73337D01*
X871663Y73734D01*
X872102Y74084D01*
X872578Y74383D01*
X873084Y74627D01*
X873614Y74812D01*
X874161Y74937D01*
X874719Y75000D01*
X875281Y75000D01*
X875839Y74937D01*
X876386Y74812D01*
X876916Y74627D01*
X877422Y74383D01*
X877898Y74084D01*
X878337Y73734D01*
X878734Y73337D01*
X879084Y72898D01*
X879383Y72422D01*
X879627Y71916D01*
X879812Y71386D01*
X879937Y70839D01*
X880000Y70281D01*
X880000Y69719D01*
X880000Y89719D02*
X879937Y89161D01*
X879812Y88614D01*
X879627Y88084D01*
X879383Y87578D01*
X879084Y87102D01*
X878734Y86663D01*
X878337Y86266D01*
X877898Y85916D01*
X877422Y85617D01*
X876916Y85373D01*
X876386Y85188D01*
X875839Y85063D01*
X875281Y85000D01*
X874719Y85000D01*
X874161Y85063D01*
X873614Y85188D01*
X873084Y85373D01*
X872578Y85617D01*
X872102Y85916D01*
X871663Y86266D01*
X871266Y86663D01*
X870916Y87102D01*
X870617Y87578D01*
X870373Y88084D01*
X870188Y88614D01*
X870063Y89161D01*
X870000Y89719D01*
X870000Y90281D01*
X870063Y90839D01*
X870188Y91386D01*
X870373Y91916D01*
X870617Y92422D01*
X870916Y92898D01*
X871266Y93337D01*
X871663Y93734D01*
X872102Y94084D01*
X872578Y94383D01*
X873084Y94627D01*
X873614Y94812D01*
X874161Y94937D01*
X874719Y95000D01*
X875281Y95000D01*
X875839Y94937D01*
X876386Y94812D01*
X876916Y94627D01*
X877422Y94383D01*
X877898Y94084D01*
X878337Y93734D01*
X878734Y93337D01*
X879084Y92898D01*
X879383Y92422D01*
X879627Y91916D01*
X879812Y91386D01*
X879937Y90839D01*
X880000Y90281D01*
X880000Y89719D01*
X430000Y79719D02*
X429937Y79161D01*
X429812Y78614D01*
X429627Y78084D01*
X429383Y77578D01*
X429084Y77102D01*
X428734Y76663D01*
X428337Y76266D01*
X427898Y75916D01*
X427422Y75617D01*
X426916Y75373D01*
X426386Y75188D01*
X425839Y75063D01*
X425281Y75000D01*
X424719Y75000D01*
X424161Y75063D01*
X423614Y75188D01*
X423084Y75373D01*
X422578Y75617D01*
X422102Y75916D01*
X421663Y76266D01*
X421266Y76663D01*
X420916Y77102D01*
X420617Y77578D01*
X420373Y78084D01*
X420188Y78614D01*
X420063Y79161D01*
X420000Y79719D01*
X420000Y80281D01*
X420063Y80839D01*
X420188Y81386D01*
X420373Y81916D01*
X420617Y82422D01*
X420916Y82898D01*
X421266Y83337D01*
X421663Y83734D01*
X422102Y84084D01*
X422578Y84383D01*
X423084Y84627D01*
X423614Y84812D01*
X424161Y84937D01*
X424719Y85000D01*
X425281Y85000D01*
X425839Y84937D01*
X426386Y84812D01*
X426916Y84627D01*
X427422Y84383D01*
X427898Y84084D01*
X428337Y83734D01*
X428734Y83337D01*
X429084Y82898D01*
X429383Y82422D01*
X429627Y81916D01*
X429812Y81386D01*
X429937Y80839D01*
X430000Y80281D01*
X430000Y79719D01*
M02*
